<svg xmlns="http://www.w3.org/2000/svg" xmlns:xlink="http://www.w3.org/1999/xlink" width="500" zoomAndPan="magnify" viewBox="0 0 375 374.999991" height="500" preserveAspectRatio="xMidYMid meet" version="1.0"><defs><g/><clipPath id="id1"><path d="M 10.328125 10.328125 L 364.328125 10.328125 L 364.328125 364.328125 L 10.328125 364.328125 Z M 10.328125 10.328125 " clip-rule="nonzero"/></clipPath></defs><g clip-path="url(#id1)"><path fill="#5271ff" d="M 187.328125 10.328125 C 89.574219 10.328125 10.328125 89.574219 10.328125 187.328125 C 10.328125 285.082031 89.574219 364.328125 187.328125 364.328125 C 285.082031 364.328125 364.328125 285.082031 364.328125 187.328125 C 364.328125 89.574219 285.082031 10.328125 187.328125 10.328125 " fill-opacity="1" fill-rule="nonzero"/></g><g fill="#ffffff" fill-opacity="1"><g transform="translate(97.916014, 247.499984)"><g><path d="M 98.519531 -102.121094 C 98.160156 -101.761719 98.039062 -100.921875 97.800781 -100.199219 C 97.679688 -99.480469 97.679688 -98.878906 97.921875 -98.878906 C 98.039062 -98.878906 98.28125 -99 98.28125 -99.121094 C 98.640625 -100.558594 98.878906 -101.160156 99.238281 -101.878906 C 99.601562 -103.078125 99 -103.199219 98.519531 -102.121094 Z M 85.078125 -44.519531 C 84.480469 -44.519531 83.878906 -42.960938 84.359375 -42.238281 C 84.839844 -41.398438 85.199219 -41.640625 85.679688 -42.71875 C 86.160156 -43.921875 85.921875 -44.519531 85.078125 -44.519531 Z M 84.359375 -37.679688 C 83.640625 -37.679688 83.640625 -38.28125 84.238281 -38.761719 C 84.71875 -39.238281 84.601562 -41.28125 84.121094 -41.28125 C 84 -41.28125 83.640625 -40.558594 83.519531 -39.480469 C 83.398438 -38.160156 83.519531 -37.441406 84 -37.078125 C 84.71875 -36.359375 84.71875 -36.359375 84.839844 -37.078125 C 84.839844 -37.441406 84.601562 -37.679688 84.359375 -37.679688 Z M 86.878906 -38.28125 C 86.640625 -38.160156 86.519531 -38.28125 86.398438 -38.519531 C 86.28125 -39 86.28125 -39 86.160156 -38.519531 C 86.160156 -38.28125 86.28125 -37.800781 86.519531 -37.441406 C 87.121094 -36.601562 87.121094 -36.71875 87.238281 -37.558594 C 87.238281 -38.160156 87.121094 -38.28125 86.878906 -38.28125 Z M 87.960938 -49.921875 C 87.839844 -48.960938 87.960938 -48.601562 88.078125 -49.199219 C 88.199219 -49.679688 88.320312 -50.398438 88.320312 -50.761719 C 88.199219 -51.121094 88.078125 -50.761719 87.960938 -49.921875 Z M 86.28125 -40.199219 C 86.398438 -39.601562 86.640625 -40.320312 87 -42 C 87.359375 -43.441406 87.359375 -44.761719 87.238281 -45 C 87 -45.480469 85.921875 -41.039062 86.28125 -40.199219 Z M 110.039062 -129.359375 C 109.921875 -129 110.160156 -128.640625 110.28125 -128.640625 C 110.761719 -128.640625 111.238281 -130.199219 111 -130.800781 C 110.761719 -131.28125 110.160156 -130.320312 110.039062 -129.359375 Z M 112.558594 -136.679688 C 112.320312 -136.679688 111.960938 -135.71875 111.601562 -134.640625 C 111.359375 -133.558594 111 -132.359375 110.761719 -132 C 110.640625 -131.519531 110.640625 -131.519531 111 -131.519531 C 111.121094 -131.761719 111.601562 -132.601562 111.839844 -133.558594 C 112.078125 -134.398438 112.441406 -135.601562 112.679688 -135.960938 C 112.800781 -136.320312 112.679688 -136.679688 112.558594 -136.679688 Z M 113.519531 -140.878906 C 113.398438 -141 113.28125 -140.878906 113.28125 -140.398438 C 113.28125 -139.921875 113.28125 -139.800781 113.519531 -140.160156 C 113.640625 -140.398438 113.640625 -140.878906 113.519531 -140.878906 Z M 104.519531 -119.878906 C 104.160156 -119.039062 103.558594 -117.839844 103.441406 -117.238281 C 103.199219 -116.519531 103.199219 -116.039062 103.441406 -116.039062 C 103.921875 -115.921875 104.160156 -116.398438 104.761719 -118.921875 C 105.238281 -121.320312 105.238281 -121.320312 104.519531 -119.878906 Z M 120.480469 -165.839844 C 120.238281 -166.441406 119.878906 -167.160156 119.878906 -167.28125 C 120 -167.761719 117.71875 -170.28125 116.519531 -171.238281 C 116.039062 -171.601562 115.078125 -171.960938 114.480469 -171.960938 C 113.878906 -171.960938 113.519531 -172.199219 113.519531 -172.441406 C 113.519531 -172.679688 113.160156 -173.039062 112.679688 -173.28125 C 112.199219 -173.640625 111.71875 -173.640625 111 -173.28125 C 110.039062 -172.800781 109.921875 -172.800781 109.558594 -173.398438 C 109.078125 -174.121094 106.441406 -174.480469 105.71875 -174 C 105.480469 -173.761719 104.640625 -173.398438 103.800781 -173.160156 C 101.640625 -172.320312 98.640625 -170.160156 94.558594 -166.441406 C 92.160156 -164.160156 90.960938 -162.839844 90.839844 -162.238281 C 90.839844 -161.761719 90.71875 -161.398438 90.480469 -161.519531 C 90.121094 -162 88.800781 -160.679688 88.921875 -159.960938 C 89.160156 -159.601562 89.039062 -159.480469 88.679688 -159.71875 C 88.320312 -159.839844 88.199219 -159.71875 87.839844 -159.121094 C 87.71875 -158.640625 87.480469 -158.28125 87.359375 -158.28125 C 86.878906 -158.28125 86.28125 -156.960938 86.039062 -155.878906 C 85.800781 -154.800781 85.320312 -154.441406 85.441406 -155.398438 C 85.558594 -156.238281 84.480469 -155.878906 84.359375 -154.921875 C 84.121094 -153.71875 83.640625 -153.238281 83.039062 -153.238281 C 82.679688 -153.238281 82.441406 -153 82.320312 -152.761719 C 82.320312 -152.640625 81.839844 -152.039062 81.480469 -151.679688 C 81 -151.199219 80.519531 -150.601562 80.519531 -150.238281 C 80.519531 -150 80.28125 -149.640625 80.039062 -149.640625 C 79.800781 -149.640625 79.679688 -149.28125 79.679688 -148.921875 C 79.679688 -148.441406 79.679688 -148.078125 79.441406 -148.078125 C 79.320312 -148.078125 79.078125 -147.71875 78.839844 -147.238281 C 78.71875 -146.640625 78.359375 -146.28125 77.761719 -146.160156 C 76.800781 -146.039062 75.960938 -145.078125 76.679688 -144.480469 C 77.160156 -144.238281 76.078125 -142.320312 75.359375 -142.320312 C 75 -142.320312 74.761719 -142.199219 74.519531 -141.839844 C 74.398438 -141.601562 74.519531 -141.359375 74.761719 -141.359375 C 75.238281 -141.359375 73.441406 -138.839844 72.839844 -138.71875 C 72.601562 -138.601562 72.480469 -138.238281 72.480469 -137.878906 C 72.359375 -137.519531 72.121094 -136.921875 71.878906 -136.679688 C 71.398438 -136.199219 71.519531 -136.199219 72.121094 -136.320312 C 72.601562 -136.441406 73.921875 -137.878906 75.71875 -140.398438 C 82.441406 -149.640625 84.71875 -152.398438 85.199219 -152.160156 C 85.441406 -152.039062 85.800781 -152.160156 85.800781 -152.28125 C 85.800781 -152.519531 85.679688 -152.761719 85.441406 -152.761719 C 85.199219 -152.761719 85.679688 -153.480469 86.28125 -154.199219 C 87 -155.039062 88.199219 -156.359375 88.921875 -157.199219 C 89.761719 -158.160156 90.238281 -158.519531 90.359375 -158.160156 C 90.359375 -157.921875 90.71875 -157.921875 91.199219 -158.398438 C 92.28125 -159.238281 92.398438 -159.839844 91.441406 -159.480469 C 90.960938 -159.359375 90.960938 -159.480469 91.800781 -160.441406 C 93.238281 -162.121094 98.28125 -166.800781 97.441406 -165.71875 C 97.078125 -165.238281 96.71875 -164.878906 96.480469 -164.878906 C 96.480469 -164.878906 96.238281 -164.640625 96.121094 -164.28125 C 95.878906 -163.800781 95.878906 -163.800781 96.601562 -164.160156 C 98.160156 -165 97.800781 -164.039062 96.121094 -162.601562 C 95.160156 -161.761719 94.078125 -160.679688 93.71875 -160.199219 C 89.878906 -155.519531 88.441406 -153.601562 87.839844 -152.878906 C 87.480469 -152.398438 86.039062 -150.71875 84.601562 -149.160156 C 83.160156 -147.480469 81.601562 -145.441406 81 -144.359375 C 80.398438 -143.398438 79.199219 -141.839844 78.480469 -140.878906 C 77.640625 -139.921875 76.441406 -138.238281 75.839844 -137.160156 C 75.121094 -136.078125 74.398438 -135 74.160156 -134.761719 C 73.921875 -134.519531 73.320312 -133.679688 72.839844 -132.839844 C 72.238281 -131.878906 71.160156 -130.320312 70.320312 -129.238281 C 69.601562 -128.160156 68.761719 -126.839844 68.519531 -126.480469 C 68.398438 -126.121094 67.921875 -125.398438 67.558594 -125.039062 C 67.199219 -124.679688 66.238281 -123.359375 65.519531 -121.921875 C 64.679688 -120.601562 63.480469 -118.921875 63 -118.320312 C 61.558594 -116.398438 50.761719 -98.519531 50.640625 -97.679688 C 50.640625 -97.320312 50.398438 -97.078125 50.28125 -97.078125 C 49.921875 -97.078125 45.960938 -90.601562 45.839844 -89.878906 C 45.839844 -89.761719 44.640625 -87.71875 43.441406 -85.441406 C 39.601562 -78.960938 38.160156 -76.320312 37.679688 -75.359375 C 37.441406 -74.640625 35.519531 -73.800781 35.160156 -74.398438 C 35.039062 -74.398438 35.519531 -75.359375 36.238281 -76.320312 C 36.839844 -77.398438 37.441406 -78.480469 37.558594 -78.960938 C 37.558594 -79.320312 37.800781 -79.679688 37.921875 -79.921875 C 38.160156 -80.039062 39.359375 -81.960938 40.679688 -84.359375 C 44.640625 -91.441406 47.398438 -96.359375 50.761719 -102.121094 C 52.078125 -104.28125 53.160156 -106.320312 53.28125 -106.558594 C 53.28125 -106.800781 53.519531 -107.039062 53.640625 -107.039062 C 53.878906 -107.039062 54.238281 -107.519531 54.480469 -108.121094 C 54.839844 -108.71875 55.441406 -109.679688 55.800781 -110.398438 C 56.28125 -111 56.878906 -111.839844 57.121094 -112.078125 C 57.238281 -112.441406 57.71875 -113.160156 57.960938 -113.761719 C 59.160156 -116.039062 60.71875 -118.441406 62.640625 -121.078125 C 63.71875 -122.640625 64.679688 -124.199219 64.679688 -124.320312 C 64.679688 -124.558594 65.039062 -124.921875 65.28125 -125.160156 C 65.640625 -125.398438 66.238281 -126.238281 66.480469 -127.078125 C 66.839844 -127.800781 67.800781 -129.238281 68.28125 -130.078125 C 70.558594 -132.839844 70.800781 -133.320312 70.320312 -133.921875 C 70.078125 -134.160156 70.078125 -134.28125 70.558594 -134.28125 C 71.398438 -134.28125 71.519531 -134.878906 70.800781 -135.121094 C 70.078125 -135.480469 69.238281 -134.28125 68.761719 -132.480469 C 68.761719 -131.878906 68.28125 -131.160156 67.921875 -130.679688 C 67.558594 -130.441406 67.199219 -129.71875 67.078125 -129.359375 C 66.960938 -128.878906 66.480469 -128.398438 66 -128.398438 C 65.28125 -128.398438 65.039062 -128.160156 65.160156 -127.320312 C 65.28125 -126.71875 65.160156 -126.480469 64.441406 -126.238281 C 63.960938 -126.238281 63.601562 -125.878906 63.839844 -125.761719 C 63.839844 -125.398438 63.71875 -125.160156 63.601562 -125.039062 C 63.359375 -124.921875 63.121094 -124.441406 63 -123.960938 C 63 -123.601562 62.761719 -123 62.398438 -122.761719 C 62.039062 -122.398438 61.558594 -121.800781 61.441406 -121.199219 C 61.199219 -120.601562 60.71875 -120.121094 60.480469 -120.121094 C 60.121094 -120.121094 59.878906 -119.878906 60 -119.640625 C 60 -119.28125 59.519531 -118.441406 58.679688 -117.601562 C 57.601562 -116.640625 57.359375 -116.039062 57.480469 -115.679688 C 57.960938 -115.078125 57.359375 -114.71875 56.878906 -115.199219 C 56.519531 -115.679688 56.398438 -115.558594 56.398438 -114.960938 C 56.28125 -114.601562 56.398438 -114.121094 56.519531 -114.121094 C 56.878906 -114.121094 56.640625 -113.878906 56.28125 -113.398438 C 55.800781 -113.039062 55.441406 -112.441406 55.441406 -112.320312 C 55.441406 -111.960938 55.199219 -111.71875 54.960938 -111.839844 C 54.839844 -111.839844 54.71875 -111.601562 54.71875 -111.238281 C 54.839844 -110.878906 54.601562 -110.640625 54.238281 -110.398438 C 53.640625 -110.160156 53.640625 -110.160156 54 -109.558594 C 54.238281 -109.078125 54.121094 -108.839844 53.519531 -108.960938 C 53.398438 -108.960938 53.160156 -108.601562 53.160156 -108.359375 C 52.921875 -107.160156 50.039062 -103.078125 49.679688 -103.320312 C 49.441406 -103.441406 49.320312 -103.320312 49.441406 -102.71875 C 49.558594 -102.121094 49.441406 -101.878906 49.199219 -102.121094 C 48.960938 -102.238281 48.960938 -102.121094 48.960938 -101.761719 C 49.199219 -100.921875 48.238281 -99.480469 47.519531 -99.839844 C 47.28125 -99.960938 47.039062 -99.839844 46.921875 -99.601562 C 46.921875 -99.359375 47.039062 -99.121094 47.398438 -99.121094 C 47.761719 -99.121094 47.761719 -99 47.398438 -98.878906 C 47.160156 -98.640625 46.800781 -98.039062 46.558594 -97.558594 C 46.441406 -96.960938 46.199219 -96.601562 45.960938 -96.71875 C 45.601562 -96.71875 45.480469 -96.601562 45.601562 -96 C 45.601562 -95.519531 45.480469 -95.160156 45.238281 -94.921875 C 45 -94.921875 44.878906 -95.039062 44.878906 -95.398438 C 44.878906 -95.640625 44.761719 -96 44.519531 -96 C 44.28125 -96 44.160156 -95.519531 44.160156 -94.558594 C 44.28125 -93.238281 43.441406 -91.199219 42.71875 -91.199219 C 42.71875 -91.199219 42.480469 -90.960938 42.359375 -90.480469 C 42.359375 -90 42 -89.519531 41.640625 -89.28125 C 41.28125 -89.039062 41.039062 -88.558594 41.28125 -88.199219 C 41.28125 -87.960938 41.160156 -87.601562 40.921875 -87.480469 C 40.679688 -87.359375 40.558594 -87.121094 40.558594 -86.878906 C 40.679688 -86.640625 40.558594 -86.398438 40.320312 -86.28125 C 40.078125 -86.160156 39.839844 -85.679688 39.839844 -85.320312 C 39.839844 -84.839844 39.121094 -83.640625 38.519531 -82.441406 C 37.800781 -81.359375 36.960938 -79.921875 36.71875 -79.441406 C 36.238281 -78.480469 35.519531 -78.238281 35.640625 -78.960938 C 35.640625 -79.199219 35.398438 -79.320312 35.28125 -79.320312 C 34.921875 -79.441406 34.800781 -79.199219 34.921875 -78.839844 C 35.519531 -77.039062 35.398438 -76.921875 34.800781 -76.921875 C 34.441406 -77.039062 34.199219 -76.679688 34.078125 -76.441406 C 34.078125 -75.960938 34.199219 -75.839844 34.441406 -75.960938 C 34.679688 -76.078125 34.800781 -75.960938 34.800781 -75.71875 C 34.800781 -75.480469 34.320312 -75.121094 33.960938 -75.121094 C 33.121094 -74.878906 32.761719 -74.398438 33.601562 -74.039062 C 34.199219 -73.800781 32.039062 -72.839844 23.160156 -69.71875 C 15.960938 -66.960938 15.238281 -66.601562 14.519531 -65.398438 C 13.558594 -63.960938 13.441406 -61.558594 14.398438 -61.441406 C 14.761719 -61.441406 14.761719 -61.078125 14.761719 -60.359375 C 14.28125 -58.320312 14.398438 -58.078125 16.320312 -56.039062 L 18.238281 -54.121094 L 20.398438 -54.71875 C 23.039062 -55.441406 23.039062 -55.441406 23.039062 -54.359375 C 23.28125 -53.160156 22.441406 -51.71875 21.480469 -51.359375 C 20.640625 -51.238281 20.640625 -50.878906 20.640625 -49.441406 C 20.640625 -47.761719 20.160156 -46.921875 19.679688 -48.121094 C 19.679688 -48.480469 19.679688 -48.238281 19.558594 -47.761719 C 19.679688 -46.921875 18.480469 -43.199219 17.878906 -42.480469 C 17.640625 -42.121094 17.398438 -42.121094 17.039062 -42.238281 C 16.558594 -42.359375 16.558594 -42.359375 16.800781 -41.640625 C 17.039062 -41.039062 17.039062 -41.039062 16.558594 -41.160156 C 16.078125 -41.398438 16.078125 -41.160156 16.320312 -40.320312 C 16.558594 -38.878906 16.558594 -38.519531 16.199219 -39.359375 C 15.839844 -39.839844 15.839844 -39.71875 15.839844 -39 C 15.960938 -38.398438 15.71875 -38.039062 15.359375 -37.800781 C 15.121094 -37.679688 14.761719 -37.441406 14.761719 -37.078125 C 14.640625 -36.839844 14.28125 -36.359375 13.800781 -36 C 13.199219 -35.519531 12.960938 -35.160156 13.078125 -34.558594 C 13.078125 -34.199219 13.320312 -33.71875 13.558594 -33.71875 C 13.800781 -33.71875 13.679688 -33.359375 13.558594 -33 C 13.441406 -32.398438 13.199219 -32.28125 12.960938 -32.519531 C 12.359375 -33.121094 12 -33.121094 12.121094 -32.160156 C 12.121094 -31.800781 12.359375 -31.441406 12.601562 -31.679688 C 12.839844 -31.800781 12.960938 -31.441406 12.601562 -30.960938 C 11.519531 -28.320312 10.800781 -27.238281 11.28125 -29.039062 C 11.519531 -29.761719 11.398438 -29.761719 10.921875 -28.921875 C 10.679688 -28.320312 10.199219 -27.839844 9.960938 -27.839844 C 9.71875 -27.839844 9.480469 -27.238281 9.238281 -26.398438 C 8.640625 -22.558594 8.519531 -21.960938 8.28125 -22.199219 C 8.28125 -22.441406 7.800781 -22.441406 7.558594 -22.199219 C 7.199219 -22.078125 7.078125 -21.71875 7.320312 -21.601562 C 7.320312 -21.359375 7.199219 -20.640625 6.839844 -19.921875 C 6.480469 -19.199219 6.480469 -18.839844 6.71875 -18.71875 C 6.960938 -18.601562 7.078125 -18.238281 7.078125 -18 C 6.960938 -17.519531 6.839844 -17.398438 6.71875 -17.761719 C 6.601562 -18 6.359375 -18.121094 6.121094 -18 C 5.761719 -17.878906 5.519531 -17.640625 5.640625 -17.398438 C 5.878906 -16.921875 4.679688 -14.640625 4.320312 -14.761719 C 4.078125 -14.761719 3.839844 -13.800781 3.480469 -12.839844 C 3.359375 -11.761719 2.398438 -9.480469 1.558594 -7.558594 C 0.71875 -5.761719 0.121094 -4.078125 0.238281 -3.71875 C 0.238281 -3.480469 0.121094 -3.121094 -0.121094 -3 C -0.359375 -2.878906 -0.601562 -2.28125 -0.71875 -1.921875 C -0.71875 -1.320312 -0.960938 -0.839844 -1.078125 -0.601562 C -1.441406 -0.238281 -3.480469 4.921875 -5.398438 10.921875 C -5.761719 12 -6.480469 13.800781 -7.199219 14.878906 C -7.800781 15.960938 -8.398438 17.398438 -8.398438 18 C -8.640625 19.199219 -7.441406 20.761719 -6.359375 20.761719 C -6 20.761719 -5.519531 21.121094 -5.398438 21.601562 C -5.039062 22.558594 -4.199219 22.800781 -1.800781 23.28125 C -0.839844 23.398438 0.121094 23.519531 0.238281 23.640625 C 0.480469 24 2.160156 22.800781 4.199219 21 C 6.359375 18.839844 6.480469 18.480469 8.160156 12.960938 C 9.238281 9.601562 10.199219 6.960938 12.839844 -0.601562 C 13.921875 -3.121094 15 -6.480469 15.359375 -7.800781 C 15.71875 -9 16.441406 -10.679688 16.679688 -11.28125 C 17.039062 -11.761719 17.28125 -12.71875 17.398438 -13.078125 C 17.519531 -13.921875 19.320312 -18.238281 20.160156 -19.679688 C 20.398438 -20.160156 20.761719 -21 20.878906 -21.480469 C 21.839844 -25.078125 26.519531 -36.238281 28.441406 -39.601562 C 29.160156 -40.679688 29.640625 -41.878906 29.761719 -42.238281 C 29.761719 -42.601562 30.238281 -43.078125 30.601562 -43.199219 C 31.558594 -43.320312 31.679688 -43.921875 31.199219 -44.28125 C 30.601562 -44.761719 30.839844 -45.601562 31.558594 -46.199219 C 32.160156 -46.800781 33 -48.359375 35.519531 -53.761719 C 36.121094 -55.078125 36.71875 -56.28125 36.960938 -56.28125 C 37.078125 -56.398438 37.320312 -56.878906 37.320312 -57.359375 C 37.441406 -57.839844 37.921875 -58.441406 38.519531 -58.800781 C 39 -59.039062 39.601562 -59.519531 39.71875 -59.878906 C 39.960938 -60.839844 41.519531 -61.441406 47.398438 -63.121094 C 55.800781 -65.640625 62.398438 -67.078125 65.160156 -67.441406 C 69 -67.679688 76.199219 -68.640625 78 -68.878906 C 81.238281 -69.359375 86.039062 -69.121094 85.441406 -68.519531 C 84.839844 -67.800781 84.121094 -66.121094 84.601562 -66.359375 C 85.800781 -67.078125 85.078125 -63.480469 83.640625 -61.800781 C 83.28125 -61.441406 83.28125 -61.320312 83.519531 -61.199219 C 84.238281 -60.960938 83.28125 -57 82.558594 -56.398438 C 82.078125 -56.160156 81.960938 -55.800781 82.078125 -55.441406 C 82.320312 -55.078125 82.441406 -55.078125 82.679688 -55.679688 C 83.039062 -56.398438 83.039062 -56.28125 83.039062 -55.320312 C 83.039062 -54.839844 82.679688 -54.121094 82.320312 -53.878906 C 81.71875 -53.398438 80.878906 -49.921875 81.480469 -49.800781 C 81.960938 -49.800781 81.121094 -44.28125 80.398438 -43.558594 C 80.160156 -43.320312 80.160156 -42.71875 80.28125 -42.121094 C 80.398438 -41.640625 80.039062 -38.039062 79.558594 -34.078125 C 79.199219 -30.238281 78.71875 -26.878906 78.960938 -26.761719 C 79.078125 -26.640625 79.078125 -25.921875 78.960938 -25.078125 C 78 -19.441406 81.960938 -5.640625 84.601562 -5.519531 C 84.71875 -5.519531 85.199219 -5.039062 85.441406 -4.679688 C 86.160156 -3.480469 87.71875 -2.640625 89.640625 -2.398438 C 91.199219 -2.039062 91.320312 -2.160156 91.921875 -3.238281 C 92.28125 -3.71875 92.640625 -4.320312 92.761719 -4.441406 C 93 -4.679688 93.121094 -5.160156 92.878906 -5.519531 C 92.640625 -6.121094 92.640625 -6.960938 92.640625 -7.558594 C 92.878906 -8.160156 92.640625 -9.839844 92.398438 -11.519531 C 92.160156 -13.078125 92.039062 -14.398438 92.160156 -14.640625 C 92.398438 -14.878906 92.28125 -15.238281 92.160156 -15.480469 C 91.921875 -15.71875 91.800781 -17.160156 91.800781 -18.71875 C 91.921875 -20.28125 91.921875 -21.71875 91.800781 -21.839844 C 91.679688 -22.199219 92.28125 -32.160156 92.878906 -36.71875 C 93.238281 -39.601562 93.238281 -41.039062 93 -41.039062 C 92.761719 -41.039062 92.761719 -41.28125 93.121094 -41.640625 C 93.839844 -42.359375 94.558594 -46.441406 95.398438 -52.800781 C 95.640625 -55.078125 96.121094 -56.640625 96.238281 -56.640625 C 96.480469 -56.640625 96.359375 -56.878906 96.121094 -57.121094 C 95.640625 -57.359375 95.640625 -57.601562 96.480469 -58.199219 C 96.839844 -58.679688 97.199219 -59.398438 97.320312 -60.359375 C 97.199219 -61.800781 97.921875 -63.839844 98.519531 -63.839844 C 98.640625 -63.839844 98.640625 -63.480469 98.398438 -62.878906 C 98.160156 -62.160156 98.28125 -62.160156 99.601562 -62.398438 C 100.558594 -62.519531 101.398438 -62.761719 101.640625 -62.878906 C 101.878906 -63.121094 102.480469 -63.359375 102.960938 -63.480469 C 103.679688 -63.71875 103.921875 -63.601562 103.800781 -63.121094 C 103.800781 -62.519531 103.800781 -62.519531 104.398438 -62.878906 C 104.640625 -63 105.121094 -63.238281 105.359375 -63.238281 C 105.359375 -63.121094 105.839844 -63.238281 106.199219 -63.359375 C 106.558594 -63.480469 107.160156 -63.601562 107.761719 -63.71875 C 109.199219 -63.71875 109.921875 -66.121094 109.320312 -67.921875 C 109.078125 -68.640625 108.839844 -69.601562 108.960938 -69.960938 C 108.960938 -70.921875 108.359375 -71.761719 107.039062 -72.480469 C 106.199219 -73.078125 105.960938 -73.441406 106.078125 -74.398438 C 106.199219 -75.238281 105.839844 -75.960938 104.160156 -77.640625 C 102.480469 -79.320312 102.238281 -80.039062 102.238281 -81.121094 C 102.238281 -81.839844 102.480469 -82.679688 102.71875 -82.921875 C 102.960938 -83.160156 103.078125 -83.761719 103.078125 -84 C 102.960938 -84.359375 103.078125 -84.71875 103.199219 -84.839844 C 103.441406 -84.960938 103.679688 -85.441406 103.800781 -85.921875 C 103.800781 -86.398438 104.28125 -87.480469 104.878906 -88.320312 C 105.359375 -89.039062 105.601562 -89.761719 105.480469 -90 C 105.121094 -90.238281 105.71875 -93.121094 106.320312 -93.71875 C 106.558594 -93.839844 106.679688 -94.320312 106.679688 -94.679688 C 106.679688 -94.921875 106.921875 -96.121094 107.398438 -97.320312 C 107.761719 -98.519531 108.71875 -101.878906 109.679688 -104.761719 C 111.238281 -109.921875 112.199219 -112.800781 112.800781 -115.078125 C 113.039062 -115.800781 113.519531 -117.359375 113.761719 -118.558594 C 114.121094 -119.761719 114.601562 -121.199219 114.960938 -121.558594 C 115.199219 -122.039062 115.679688 -123.359375 115.921875 -124.558594 C 116.160156 -125.761719 116.640625 -127.558594 116.878906 -128.640625 C 117.71875 -131.039062 118.921875 -135.71875 119.28125 -137.640625 C 119.398438 -138.480469 119.761719 -139.320312 120 -139.679688 C 120.238281 -139.921875 120.960938 -144.238281 121.558594 -149.160156 L 122.640625 -158.039062 L 121.921875 -161.398438 C 121.441406 -163.199219 120.839844 -165.238281 120.480469 -165.839844 Z M 7.320312 -11.761719 C 4.078125 -3.960938 4.558594 -4.679688 4.441406 -6.121094 C 4.441406 -6.839844 4.558594 -7.558594 4.800781 -7.679688 C 4.921875 -7.800781 5.160156 -8.398438 5.160156 -8.878906 C 5.28125 -9.480469 5.519531 -9.839844 5.761719 -9.839844 C 6.238281 -9.839844 6.238281 -9.960938 5.878906 -10.078125 C 5.519531 -10.441406 5.761719 -11.398438 6.839844 -14.039062 C 9.359375 -20.28125 22.078125 -48.71875 23.761719 -51.601562 C 23.878906 -51.839844 24.359375 -52.921875 24.839844 -53.878906 C 25.558594 -55.199219 25.921875 -55.679688 26.761719 -55.921875 C 27.359375 -56.039062 27.839844 -56.039062 27.839844 -55.921875 C 27.839844 -55.800781 27.238281 -54.71875 26.519531 -53.398438 C 25.800781 -51.960938 25.078125 -50.519531 24.839844 -50.160156 C 24.601562 -49.679688 23.519531 -47.878906 22.558594 -45.960938 C 21.601562 -44.160156 20.761719 -42.359375 20.761719 -42.121094 C 20.761719 -41.761719 20.398438 -41.039062 19.921875 -40.320312 C 18.960938 -38.519531 16.921875 -34.199219 15.839844 -31.679688 C 15.359375 -30.480469 14.640625 -29.039062 14.519531 -28.679688 C 14.28125 -28.320312 13.320312 -26.160156 12.359375 -23.878906 C 11.519531 -21.71875 10.441406 -19.199219 9.960938 -18.359375 C 9.601562 -17.519531 8.398438 -14.519531 7.320312 -11.761719 Z M 19.921875 -33.480469 C 19.320312 -31.921875 18.71875 -30.71875 18.960938 -30.71875 C 19.078125 -30.71875 18.960938 -30.601562 18.71875 -30.238281 C 18.480469 -30 18 -29.039062 17.640625 -28.320312 C 17.28125 -27.480469 16.800781 -26.761719 16.558594 -26.761719 C 16.320312 -26.878906 16.320312 -26.398438 16.320312 -26.039062 C 16.441406 -25.558594 16.199219 -24.601562 15.839844 -23.878906 C 15.480469 -23.28125 14.039062 -20.398438 12.839844 -17.519531 C 11.640625 -14.640625 10.320312 -12.121094 10.199219 -11.878906 C 9.960938 -11.761719 9.71875 -11.039062 9.601562 -10.320312 C 9.601562 -9.480469 9.359375 -8.761719 9.238281 -8.28125 C 8.761719 -7.441406 8.160156 -7.679688 8.519531 -8.640625 C 8.640625 -9.121094 9 -10.441406 9.238281 -11.519531 C 9.480469 -12.601562 10.078125 -14.398438 10.800781 -15.480469 C 11.28125 -16.558594 12 -18.359375 12.238281 -19.199219 C 12.601562 -20.160156 13.199219 -21.601562 13.679688 -22.320312 C 14.160156 -23.160156 14.519531 -24.121094 14.640625 -24.238281 C 15 -25.800781 16.199219 -28.800781 16.441406 -28.800781 C 16.679688 -28.800781 16.800781 -29.039062 16.800781 -29.398438 C 16.558594 -29.761719 17.039062 -30.601562 17.398438 -31.558594 C 17.878906 -32.28125 18.359375 -33.601562 18.71875 -34.441406 C 18.960938 -35.160156 19.921875 -37.320312 20.761719 -39.121094 C 21.71875 -41.039062 22.558594 -42.960938 22.800781 -43.320312 C 22.921875 -43.679688 23.398438 -44.878906 23.878906 -45.71875 C 24.480469 -46.558594 24.960938 -47.640625 24.960938 -47.878906 C 24.960938 -48.121094 25.800781 -49.679688 26.761719 -51.238281 C 27.71875 -52.800781 28.558594 -54.601562 28.679688 -55.320312 C 29.039062 -56.039062 29.519531 -56.761719 30.359375 -57.238281 C 31.558594 -57.71875 31.558594 -57.71875 31.441406 -57 C 31.441406 -56.519531 31.199219 -56.039062 30.960938 -55.921875 C 30.71875 -55.921875 30.480469 -55.320312 30.480469 -54.71875 C 30.359375 -54.238281 30 -53.640625 29.640625 -53.398438 C 29.398438 -53.039062 29.039062 -52.679688 28.921875 -52.441406 C 28.921875 -52.078125 28.320312 -50.640625 27.480469 -49.078125 C 26.878906 -47.640625 26.039062 -46.078125 25.800781 -45.601562 C 25.558594 -45.238281 25.078125 -44.28125 24.71875 -43.441406 C 24.359375 -42.71875 23.761719 -41.519531 23.519531 -40.679688 C 23.28125 -39.839844 22.921875 -39.121094 22.679688 -38.878906 C 22.558594 -38.761719 22.078125 -38.039062 21.839844 -37.320312 C 21.601562 -36.601562 20.761719 -34.921875 19.921875 -33.480469 Z M 31.921875 -53.878906 C 31.800781 -53.519531 31.320312 -52.441406 30.601562 -51.359375 C 30 -50.28125 29.398438 -49.078125 29.28125 -48.71875 C 29.28125 -48.238281 28.441406 -46.441406 27.480469 -44.640625 C 26.519531 -42.71875 24.960938 -39.960938 24.121094 -38.28125 C 23.398438 -36.71875 22.558594 -35.160156 22.441406 -35.039062 C 21.960938 -34.679688 23.160156 -37.441406 24.839844 -40.679688 C 25.679688 -42.480469 26.519531 -44.28125 26.519531 -44.398438 C 26.519531 -44.640625 26.878906 -45.601562 27.480469 -46.441406 C 27.960938 -47.28125 28.679688 -48.839844 29.039062 -49.800781 C 29.878906 -51.601562 31.921875 -54.71875 31.921875 -53.878906 Z M 33.71875 -57.71875 C 33.480469 -57.121094 33.121094 -56.398438 32.878906 -56.160156 C 32.519531 -55.558594 32.519531 -55.679688 32.519531 -56.28125 C 32.640625 -56.878906 33 -57.480469 33.359375 -57.960938 C 33.960938 -58.679688 33.960938 -58.679688 33.71875 -57.71875 Z M 38.160156 -69.839844 C 38.039062 -69.480469 37.441406 -69.238281 36.839844 -69.238281 C 36.121094 -69.238281 36 -69.359375 36.601562 -69.839844 C 36.960938 -70.199219 37.558594 -70.441406 37.921875 -70.441406 C 38.160156 -70.441406 38.398438 -70.199219 38.160156 -69.839844 Z M 109.441406 -150.839844 C 109.558594 -151.441406 109.679688 -151.558594 109.800781 -151.320312 C 109.800781 -150.960938 109.800781 -150.601562 109.679688 -150.359375 C 109.558594 -150 109.441406 -150.359375 109.441406 -150.839844 Z M 103.441406 -169.679688 C 103.679688 -169.800781 103.441406 -169.441406 102.71875 -168.71875 C 102.121094 -168.121094 101.398438 -167.519531 101.28125 -167.519531 C 101.039062 -167.519531 102.960938 -169.558594 103.441406 -169.679688 Z M 40.441406 -70.800781 C 40.441406 -70.558594 40.199219 -70.320312 40.078125 -70.441406 C 39.601562 -70.441406 39.601562 -70.679688 40.078125 -71.039062 C 40.320312 -71.039062 40.558594 -71.039062 40.441406 -70.800781 Z M 40.921875 -75.480469 C 40.320312 -75.121094 39 -75.121094 39.121094 -75.480469 C 39.121094 -75.601562 39.601562 -76.679688 40.078125 -77.640625 C 40.679688 -78.601562 41.640625 -80.28125 42.238281 -81.359375 C 42.960938 -82.441406 44.039062 -84.359375 44.761719 -85.558594 C 45.359375 -86.878906 45.960938 -87.960938 45.960938 -87.960938 C 45.960938 -88.199219 47.519531 -90.839844 49.320312 -93.71875 C 54.960938 -103.441406 57.359375 -107.519531 57.960938 -108.480469 C 58.199219 -109.078125 58.558594 -109.558594 58.800781 -109.679688 C 58.800781 -109.800781 59.519531 -110.761719 60.121094 -111.839844 C 61.199219 -113.761719 62.761719 -116.039062 66 -120.960938 C 66.601562 -122.039062 67.800781 -123.359375 68.28125 -124.078125 C 69 -124.800781 69.480469 -125.519531 69.480469 -125.761719 C 69.601562 -126.480469 72.839844 -131.640625 73.800781 -132.359375 C 74.160156 -132.71875 74.640625 -133.199219 74.640625 -133.558594 C 74.761719 -133.800781 75 -134.28125 75.601562 -134.761719 C 75.960938 -135 76.441406 -135.839844 76.800781 -136.441406 C 76.921875 -137.039062 78.359375 -138.960938 79.800781 -140.878906 C 81.238281 -142.679688 82.558594 -144.480469 82.679688 -144.71875 C 82.921875 -145.078125 83.761719 -146.160156 84.601562 -147.121094 C 85.558594 -148.078125 87.601562 -150.601562 89.160156 -152.640625 C 90.71875 -154.679688 93.238281 -157.558594 94.441406 -158.878906 C 96.960938 -161.640625 103.921875 -167.640625 105.71875 -168.71875 C 108 -170.039062 107.878906 -169.320312 105.480469 -167.28125 C 104.160156 -166.199219 102 -164.160156 100.679688 -162.71875 C 99.359375 -161.398438 97.679688 -159.839844 97.199219 -159.238281 C 94.679688 -156.839844 92.878906 -154.679688 92.160156 -153.71875 C 91.921875 -153.238281 91.078125 -152.039062 90.238281 -151.320312 C 89.640625 -150.480469 89.039062 -149.761719 89.039062 -149.761719 C 89.039062 -149.640625 88.441406 -148.921875 87.71875 -148.199219 C 87 -147.601562 86.398438 -146.761719 86.640625 -146.398438 C 86.640625 -146.160156 86.519531 -145.800781 86.28125 -145.921875 C 86.039062 -145.921875 85.320312 -145.078125 84.601562 -144.238281 C 83.878906 -143.28125 83.160156 -142.441406 83.039062 -142.199219 C 82.800781 -142.199219 82.679688 -141.839844 82.679688 -141.601562 C 82.921875 -141.480469 82.558594 -140.761719 82.078125 -140.160156 C 81.480469 -139.679688 81.121094 -138.960938 81.238281 -138.71875 C 81.238281 -138.359375 81.71875 -138.601562 82.199219 -139.320312 C 84.238281 -142.078125 89.039062 -148.441406 89.398438 -148.800781 C 89.640625 -149.039062 90.359375 -149.878906 90.960938 -150.839844 C 94.320312 -155.160156 106.199219 -167.519531 106.199219 -166.558594 C 106.199219 -166.320312 104.878906 -164.878906 103.199219 -163.320312 C 98.039062 -158.28125 97.441406 -157.800781 96.359375 -156.238281 C 95.640625 -155.398438 93.960938 -153.359375 92.519531 -151.679688 C 91.199219 -150.121094 89.761719 -148.320312 89.398438 -147.601562 C 88.921875 -147 87.960938 -145.800781 87.238281 -144.960938 C 86.519531 -144 85.921875 -143.039062 85.921875 -142.800781 C 85.800781 -142.441406 85.679688 -142.199219 85.558594 -142.320312 C 85.199219 -142.320312 76.679688 -130.441406 76.558594 -129.960938 C 76.558594 -129.839844 75.960938 -129 75.238281 -128.039062 C 74.519531 -127.078125 72.960938 -124.921875 71.878906 -123.121094 C 70.800781 -121.320312 69.238281 -119.160156 68.640625 -118.199219 C 67.320312 -116.160156 58.558594 -102.238281 56.160156 -98.398438 C 55.320312 -96.839844 54.359375 -95.761719 54.238281 -95.761719 C 53.761719 -95.761719 53.640625 -95.640625 57 -101.039062 C 59.878906 -105.480469 60.480469 -106.800781 59.519531 -106.800781 C 59.398438 -106.800781 58.800781 -106.078125 58.320312 -105 C 57.839844 -104.039062 57.121094 -103.078125 56.761719 -102.71875 C 56.398438 -102.601562 56.160156 -102.121094 56.160156 -101.761719 C 56.160156 -101.398438 55.800781 -100.679688 55.558594 -100.320312 C 54.238281 -98.519531 52.921875 -96.359375 52.921875 -96.121094 C 52.679688 -95.519531 51.71875 -93.71875 51.359375 -93.601562 C 51.238281 -93.480469 50.761719 -92.640625 50.519531 -91.921875 C 50.398438 -91.078125 49.800781 -90.238281 49.441406 -90 C 49.078125 -89.761719 48.71875 -89.160156 48.71875 -88.558594 C 48.601562 -87.960938 48.359375 -87.238281 48 -87 C 47.640625 -86.761719 47.398438 -86.398438 47.28125 -86.160156 C 47.28125 -85.800781 46.800781 -85.320312 46.320312 -84.71875 C 45.960938 -84.121094 45.480469 -83.519531 45.359375 -83.039062 C 45.359375 -82.441406 41.398438 -75.839844 40.921875 -75.480469 Z M 53.28125 -93.71875 C 53.28125 -93.480469 52.078125 -91.320312 50.761719 -89.160156 C 48.359375 -85.320312 48.121094 -85.078125 49.679688 -88.441406 C 50.640625 -90.480469 53.398438 -94.558594 53.28125 -93.71875 Z M 48.121094 -84.480469 C 48.121094 -84.480469 47.398438 -83.039062 46.320312 -81.480469 C 45.121094 -79.441406 44.640625 -78.839844 44.878906 -79.800781 C 45.480469 -81.960938 47.761719 -85.199219 48.121094 -84.480469 Z M 68.519531 -72.71875 C 67.441406 -72.71875 66 -72.480469 65.160156 -72.238281 C 64.199219 -72.121094 63.960938 -72.238281 64.441406 -72.480469 C 64.800781 -72.71875 66.359375 -72.960938 67.800781 -72.960938 C 70.078125 -72.960938 70.199219 -72.960938 68.519531 -72.71875 Z M 74.878906 -73.441406 C 74.160156 -73.558594 73.921875 -73.558594 74.160156 -73.679688 C 74.519531 -73.800781 75 -73.800781 75.359375 -73.679688 C 75.71875 -73.558594 75.601562 -73.441406 74.878906 -73.441406 Z M 78.359375 -73.679688 C 78 -73.679688 77.761719 -73.800781 77.878906 -73.921875 C 78 -74.039062 78.480469 -74.039062 78.71875 -73.921875 C 78.960938 -73.800781 78.839844 -73.800781 78.359375 -73.679688 Z M 83.039062 -75.359375 C 79.679688 -75.121094 79.199219 -75.121094 73.679688 -74.640625 C 71.761719 -74.519531 69.601562 -74.28125 68.761719 -74.28125 C 65.039062 -73.921875 58.441406 -72.839844 52.558594 -71.640625 C 45.601562 -69.960938 44.640625 -69.960938 44.761719 -70.800781 C 44.878906 -72 46.320312 -73.679688 47.160156 -73.921875 C 47.640625 -74.039062 49.199219 -74.398438 50.519531 -74.761719 C 53.640625 -75.480469 59.878906 -76.679688 60.839844 -76.558594 L 61.558594 -76.441406 L 60.71875 -76.199219 C 60.238281 -76.078125 60.121094 -75.839844 60.480469 -75.839844 C 60.839844 -75.839844 61.320312 -75.960938 61.800781 -76.320312 C 62.039062 -76.558594 63.359375 -77.039062 64.441406 -77.160156 C 66.238281 -77.398438 66.601562 -77.398438 66.359375 -76.921875 C 66.121094 -76.679688 66.238281 -76.441406 66.480469 -76.441406 C 66.601562 -76.441406 66.839844 -76.679688 66.839844 -76.800781 C 66.960938 -77.28125 67.078125 -77.160156 67.441406 -76.800781 C 67.921875 -76.441406 68.160156 -76.441406 68.160156 -77.160156 C 68.160156 -77.761719 75.601562 -78.238281 77.160156 -78 C 78 -77.761719 78.71875 -77.761719 78.960938 -78.121094 C 79.199219 -78.601562 80.761719 -78.601562 80.519531 -78.121094 C 80.398438 -77.878906 80.761719 -77.640625 81.359375 -77.640625 C 81.71875 -77.640625 81.839844 -77.878906 81.71875 -78.238281 C 81.601562 -78.601562 81.71875 -78.839844 82.078125 -78.839844 C 82.441406 -78.839844 82.800781 -78.480469 83.039062 -78.121094 C 83.398438 -77.519531 84.839844 -77.28125 84.960938 -77.761719 C 84.960938 -78 85.558594 -78.121094 86.28125 -78 C 87.71875 -77.761719 87.839844 -77.398438 87 -76.800781 C 86.640625 -76.320312 86.640625 -76.199219 87.121094 -76.199219 C 87.601562 -76.199219 87.480469 -76.078125 87 -75.839844 C 86.761719 -75.71875 84.960938 -75.480469 83.039062 -75.359375 Z M 82.800781 -47.761719 C 82.921875 -47.640625 82.921875 -47.160156 82.800781 -46.921875 C 82.558594 -46.558594 82.558594 -46.679688 82.558594 -47.160156 C 82.558594 -47.640625 82.679688 -47.761719 82.800781 -47.761719 Z M 91.320312 -45.960938 C 91.320312 -45.71875 91.078125 -45.601562 90.839844 -45.601562 C 90.359375 -45.601562 90.480469 -45.839844 90.960938 -46.199219 C 91.199219 -46.199219 91.320312 -46.199219 91.320312 -45.960938 Z M 94.078125 -68.519531 C 93.960938 -68.039062 93.601562 -66.238281 93.238281 -64.441406 C 93 -62.640625 92.640625 -60.960938 92.398438 -60.839844 C 92.160156 -60.359375 90.71875 -53.878906 89.878906 -48.960938 C 89.519531 -46.558594 89.039062 -43.921875 88.800781 -42.960938 C 88.679688 -42.121094 88.078125 -37.800781 87.480469 -33.238281 C 86.878906 -28.800781 86.28125 -25.199219 86.160156 -25.199219 C 85.921875 -25.199219 85.921875 -26.039062 86.039062 -27.238281 C 86.160156 -28.800781 86.160156 -29.160156 85.800781 -28.800781 C 85.441406 -28.441406 85.441406 -29.039062 85.679688 -31.078125 C 85.921875 -33.238281 85.921875 -33.601562 85.441406 -33.121094 C 85.199219 -32.640625 84.839844 -30.960938 84.839844 -28.558594 C 84.601562 -26.28125 84.480469 -23.28125 84.359375 -21.839844 C 84.238281 -18.960938 84.121094 -18.839844 83.878906 -20.878906 C 83.878906 -21.601562 83.640625 -22.078125 83.398438 -21.960938 C 83.039062 -21.839844 82.921875 -22.199219 82.800781 -22.679688 C 82.921875 -23.28125 83.160156 -23.519531 83.28125 -23.398438 C 83.519531 -23.28125 83.761719 -24.601562 83.878906 -26.398438 C 84 -28.199219 83.878906 -29.878906 83.761719 -30.121094 C 83.398438 -30.238281 83.519531 -30.839844 84 -32.160156 C 84.359375 -33.601562 84.480469 -34.320312 84.238281 -35.160156 C 84 -35.878906 83.640625 -36.480469 83.519531 -36.480469 C 83.28125 -36.480469 83.039062 -34.921875 82.800781 -32.878906 C 82.441406 -30.359375 82.558594 -29.160156 82.921875 -28.800781 C 83.28125 -28.320312 83.28125 -27.480469 83.160156 -26.519531 L 82.921875 -25.078125 L 82.800781 -26.640625 C 82.679688 -27.601562 82.679688 -28.078125 82.558594 -27.839844 C 82.320312 -27 82.078125 -22.441406 82.199219 -19.199219 C 82.441406 -14.519531 82.441406 -14.519531 83.039062 -11.640625 C 83.398438 -10.320312 83.519531 -9 83.398438 -8.878906 C 83.28125 -8.761719 82.679688 -10.078125 82.078125 -11.761719 C 80.878906 -15.359375 80.398438 -18.960938 81.121094 -19.320312 C 81.71875 -19.558594 81.359375 -21.238281 80.761719 -21 C 80.398438 -20.878906 80.398438 -21.71875 80.761719 -24.480469 C 81 -26.878906 81.121094 -28.320312 80.761719 -28.558594 C 80.160156 -28.921875 80.878906 -38.640625 81.601562 -39.121094 C 82.078125 -39.359375 82.078125 -39.480469 81.71875 -39.71875 C 81.480469 -39.839844 81.480469 -40.078125 81.71875 -40.800781 C 81.960938 -41.28125 82.199219 -42.359375 82.078125 -43.199219 C 82.078125 -44.160156 82.320312 -44.640625 82.558594 -44.640625 C 82.921875 -44.640625 83.039062 -45.359375 83.28125 -47.039062 C 83.28125 -48.480469 83.640625 -50.519531 84 -51.601562 C 84.359375 -53.039062 84.238281 -53.398438 84 -53.039062 C 83.761719 -52.679688 83.398438 -52.558594 83.28125 -52.679688 C 83.039062 -52.921875 83.28125 -53.28125 83.761719 -53.640625 C 84.238281 -53.878906 84.480469 -54.601562 84.601562 -55.441406 C 84.71875 -56.640625 86.398438 -63.238281 87.238281 -65.878906 C 87.359375 -66.71875 87.359375 -67.078125 87 -67.320312 C 86.519531 -67.441406 86.640625 -67.679688 87.359375 -68.398438 C 89.160156 -70.078125 89.398438 -69.601562 88.800781 -66.480469 C 88.558594 -64.800781 88.199219 -63 87.960938 -62.398438 C 87.71875 -61.558594 87.238281 -60 86.519531 -56.398438 C 86.398438 -55.800781 86.160156 -55.199219 86.039062 -55.199219 C 85.921875 -55.078125 85.921875 -54.480469 85.921875 -53.761719 C 85.921875 -52.921875 86.160156 -52.679688 86.519531 -52.800781 C 87 -52.921875 87 -53.160156 86.878906 -53.398438 C 86.519531 -53.878906 87.238281 -55.800781 87.960938 -56.761719 C 88.320312 -57.121094 88.320312 -57.480469 88.078125 -57.960938 C 87.839844 -58.199219 87.839844 -58.558594 88.078125 -58.679688 C 88.679688 -59.039062 89.28125 -61.800781 88.800781 -62.160156 C 88.558594 -62.28125 88.679688 -63 89.160156 -64.558594 C 89.519531 -65.640625 89.878906 -67.199219 90 -67.921875 C 90.121094 -69.121094 90.238281 -69.359375 91.078125 -69.238281 C 91.679688 -69.238281 92.039062 -69 92.039062 -68.398438 C 92.160156 -66.960938 91.679688 -64.679688 91.078125 -64.441406 C 90.839844 -64.320312 90.601562 -63.601562 90.601562 -62.519531 C 90.601562 -61.679688 90.480469 -60.839844 90.359375 -60.71875 C 90.121094 -60.71875 89.761719 -59.519531 89.398438 -58.078125 C 89.160156 -56.640625 88.800781 -55.078125 88.679688 -54.71875 C 88.320312 -54 88.558594 -53.761719 89.039062 -53.519531 C 89.761719 -53.28125 89.878906 -53.519531 90 -55.078125 C 90.121094 -56.039062 90.480469 -57.238281 90.71875 -57.601562 C 91.078125 -58.199219 91.078125 -58.441406 90.601562 -58.441406 C 90.359375 -58.441406 90.121094 -58.679688 90.121094 -58.800781 C 90.121094 -59.039062 90.480469 -59.28125 90.71875 -59.28125 C 90.960938 -59.28125 91.320312 -59.28125 91.320312 -59.519531 C 91.441406 -59.761719 91.558594 -61.078125 91.921875 -62.398438 C 92.398438 -65.761719 93 -68.398438 93.359375 -68.761719 C 93.839844 -69.480469 94.558594 -69.238281 94.078125 -68.519531 Z M 90.359375 -76.199219 C 90.601562 -76.078125 90.960938 -75.960938 90.839844 -75.71875 C 90.839844 -75.480469 90.601562 -75.359375 90.480469 -75.359375 C 90.238281 -75.359375 90 -75.601562 89.878906 -75.71875 C 89.878906 -75.960938 90 -76.199219 90.359375 -76.199219 Z M 90.238281 -77.160156 C 90.359375 -77.519531 90.601562 -77.761719 90.839844 -77.640625 C 91.078125 -77.519531 91.320312 -77.28125 91.199219 -77.160156 C 90.839844 -76.441406 90.238281 -76.441406 90.238281 -77.160156 Z M 93.121094 -76.078125 C 93.839844 -75.71875 93.839844 -75.71875 92.878906 -75.71875 C 92.28125 -75.71875 92.039062 -75.839844 92.160156 -76.679688 C 92.28125 -77.761719 92.640625 -77.878906 93.359375 -77.28125 C 93.71875 -77.039062 93.601562 -76.800781 93 -76.679688 C 92.28125 -76.441406 92.28125 -76.441406 93.121094 -76.078125 Z M 95.640625 -62.519531 C 95.398438 -62.398438 95.160156 -62.519531 95.28125 -62.878906 C 95.28125 -63.601562 95.519531 -63.71875 95.878906 -63.121094 C 95.878906 -62.878906 95.761719 -62.640625 95.640625 -62.519531 Z M 96 -77.039062 C 95.761719 -76.800781 95.761719 -76.921875 95.761719 -77.398438 C 95.761719 -77.761719 95.878906 -78 96 -77.878906 C 96.238281 -77.761719 96.121094 -77.398438 96 -77.039062 Z M 100.558594 -82.441406 C 100.441406 -82.441406 100.320312 -82.558594 100.078125 -83.039062 C 99.960938 -83.640625 100.078125 -83.640625 100.320312 -83.160156 C 100.558594 -82.921875 100.679688 -82.558594 100.558594 -82.441406 Z M 102.238281 -86.519531 C 102.238281 -86.28125 101.878906 -85.800781 101.519531 -85.441406 C 100.921875 -84.960938 100.800781 -85.078125 101.160156 -85.921875 C 101.398438 -86.878906 102.359375 -87.480469 102.238281 -86.519531 Z M 102.601562 -88.320312 C 102.480469 -88.078125 102.121094 -87.839844 102 -87.839844 C 101.761719 -87.839844 101.640625 -88.199219 101.878906 -88.441406 C 102.121094 -88.921875 102.238281 -89.398438 102.238281 -89.519531 C 102.238281 -89.878906 102.480469 -89.878906 102.601562 -89.519531 C 102.839844 -89.160156 102.71875 -88.679688 102.601562 -88.320312 Z M 103.199219 -90.601562 C 103.078125 -90.480469 102.960938 -90.238281 102.71875 -90.238281 C 102.480469 -90.238281 102.359375 -90.480469 102.359375 -90.71875 C 102.359375 -90.839844 102.601562 -91.078125 102.839844 -91.078125 C 102.960938 -91.078125 103.199219 -90.839844 103.199219 -90.601562 Z M 103.921875 -93.601562 C 103.679688 -93.601562 103.441406 -93.601562 103.558594 -93.839844 C 103.558594 -94.078125 103.800781 -94.199219 103.921875 -94.199219 C 104.160156 -94.199219 104.28125 -94.078125 104.28125 -94.078125 C 104.28125 -93.960938 104.039062 -93.71875 103.921875 -93.601562 Z M 104.398438 -95.039062 C 104.398438 -94.800781 104.160156 -94.679688 104.039062 -94.679688 C 103.800781 -94.679688 103.679688 -94.921875 103.679688 -95.039062 C 103.679688 -95.28125 103.921875 -95.398438 104.160156 -95.398438 C 104.28125 -95.398438 104.519531 -95.28125 104.398438 -95.039062 Z M 105.601562 -98.160156 C 105.601562 -97.921875 105.359375 -97.800781 105.121094 -97.800781 C 104.761719 -97.800781 104.640625 -98.398438 104.640625 -98.878906 C 104.761719 -99.71875 104.878906 -99.71875 105.238281 -99.121094 C 105.480469 -98.878906 105.601562 -98.28125 105.601562 -98.160156 Z M 107.160156 -102.960938 C 107.039062 -102.839844 106.679688 -102.601562 106.441406 -102.601562 C 106.320312 -102.601562 106.078125 -102.839844 105.960938 -103.078125 C 105.839844 -103.199219 106.078125 -103.441406 106.558594 -103.441406 C 107.039062 -103.441406 107.28125 -103.199219 107.160156 -102.960938 Z M 111.121094 -116.398438 C 110.878906 -115.078125 110.039062 -114.71875 109.921875 -115.679688 C 109.800781 -116.160156 110.039062 -116.761719 110.640625 -117 C 111.359375 -117.359375 111.359375 -117.238281 111.121094 -116.398438 Z M 111.480469 -118.199219 C 111.359375 -117.960938 111.238281 -117.71875 111.238281 -117.71875 C 111.121094 -117.71875 110.878906 -117.960938 110.878906 -118.199219 C 110.761719 -118.441406 110.761719 -118.558594 111.121094 -118.558594 C 111.238281 -118.558594 111.480469 -118.320312 111.480469 -118.199219 Z M 112.558594 -121.679688 C 112.441406 -121.320312 112.320312 -121.679688 112.441406 -122.160156 C 112.441406 -122.761719 112.558594 -123 112.679688 -122.640625 C 112.679688 -122.398438 112.679688 -121.921875 112.558594 -121.679688 Z M 114.238281 -141.480469 C 113.878906 -139.558594 113.640625 -137.761719 113.640625 -137.398438 C 113.519531 -137.160156 113.039062 -134.878906 112.558594 -132.601562 C 111.960938 -130.320312 111.480469 -128.28125 111.359375 -127.921875 C 111.359375 -127.679688 111 -127.441406 110.761719 -127.441406 C 110.519531 -127.441406 110.160156 -127.679688 110.28125 -127.921875 C 110.398438 -129.238281 109.800781 -127.679688 109.078125 -125.039062 C 108.71875 -123.359375 108.238281 -121.679688 108.121094 -121.320312 C 108 -120.839844 107.640625 -119.640625 107.398438 -118.558594 C 107.039062 -117.480469 106.558594 -116.398438 106.199219 -116.160156 C 105.839844 -115.800781 105.601562 -115.441406 105.839844 -115.199219 C 105.960938 -114.71875 104.761719 -109.800781 104.28125 -109.558594 C 104.039062 -109.441406 103.921875 -108.601562 103.800781 -107.761719 C 103.679688 -106.800781 103.320312 -105.480469 103.199219 -104.878906 C 102.839844 -104.160156 102.960938 -103.558594 103.078125 -103.558594 C 103.199219 -103.558594 103.679688 -104.640625 104.160156 -105.960938 C 104.640625 -107.398438 105.238281 -109.800781 105.71875 -111.238281 C 106.199219 -112.800781 106.800781 -114.601562 106.921875 -115.320312 C 107.039062 -116.039062 107.761719 -118.320312 108.359375 -120.480469 C 108.960938 -122.640625 109.558594 -125.039062 109.800781 -125.761719 C 110.039062 -126.601562 110.28125 -127.078125 110.398438 -126.960938 C 110.761719 -126.480469 109.921875 -121.679688 109.320312 -120.601562 C 108.839844 -120 108.601562 -119.398438 108.960938 -119.28125 C 109.078125 -119.039062 109.078125 -118.800781 108.71875 -118.441406 C 108.359375 -118.199219 108.238281 -117.601562 108.480469 -117.480469 C 108.480469 -117.238281 108.480469 -116.878906 108.238281 -116.519531 C 108.121094 -116.398438 107.878906 -115.679688 107.640625 -115.199219 C 107.640625 -114.601562 107.039062 -112.679688 106.441406 -111 C 105.960938 -109.199219 105 -105.839844 104.519531 -103.679688 C 103.320312 -99.839844 102.121094 -96.839844 101.761719 -97.199219 C 101.640625 -97.320312 101.878906 -98.519531 102.238281 -99.960938 C 102.960938 -102.480469 102.960938 -103.800781 102.238281 -102 C 102.121094 -101.519531 101.761719 -101.160156 101.640625 -101.160156 C 101.519531 -101.160156 101.160156 -100.558594 101.160156 -99.71875 C 101.039062 -99 100.800781 -98.398438 100.558594 -98.398438 C 100.320312 -98.398438 100.320312 -97.800781 100.320312 -96.960938 C 100.320312 -96.121094 100.078125 -95.398438 99.839844 -95.28125 C 99.601562 -95.039062 99.480469 -94.441406 99.601562 -93.601562 C 99.71875 -92.039062 99.960938 -92.28125 100.800781 -94.921875 C 101.160156 -95.878906 101.519531 -96.480469 101.640625 -96.359375 C 101.878906 -96.238281 101.878906 -95.878906 101.761719 -95.761719 C 101.761719 -95.519531 101.28125 -93.71875 100.800781 -91.679688 C 100.199219 -89.761719 99.601562 -87.480469 99.121094 -86.519531 C 98.878906 -85.679688 98.28125 -84 97.800781 -82.800781 C 97.441406 -81.601562 96.960938 -80.761719 96.839844 -81.121094 C 96.71875 -81.238281 96.960938 -82.320312 97.199219 -83.28125 C 97.921875 -85.078125 99.71875 -91.679688 99.601562 -91.921875 C 99.601562 -91.921875 99.238281 -91.921875 98.761719 -91.800781 C 98.28125 -91.558594 98.160156 -91.199219 98.28125 -90.601562 C 98.28125 -90.121094 98.160156 -89.519531 97.921875 -89.398438 C 97.679688 -89.28125 97.558594 -88.558594 97.558594 -87.601562 C 97.679688 -86.640625 97.441406 -86.039062 97.078125 -85.800781 C 96.960938 -85.679688 96.601562 -84.960938 96.601562 -84.359375 C 96.359375 -82.558594 95.398438 -81.238281 94.320312 -81.238281 C 93.839844 -81.238281 93.480469 -81.480469 93.601562 -81.839844 C 93.601562 -82.199219 93.480469 -82.441406 93.238281 -82.441406 C 93 -82.558594 92.761719 -82.199219 92.761719 -81.960938 C 92.761719 -81.480469 92.398438 -81.359375 92.039062 -81.480469 C 91.800781 -81.480469 91.441406 -81.601562 91.558594 -81.839844 C 91.679688 -81.960938 91.558594 -82.441406 91.199219 -82.921875 C 90.601562 -83.640625 90.71875 -83.761719 91.199219 -83.761719 C 91.679688 -83.761719 91.921875 -84 91.921875 -84.839844 C 91.921875 -85.441406 91.921875 -85.800781 91.679688 -85.441406 C 91.558594 -85.199219 91.441406 -84.960938 91.199219 -84.960938 C 90.71875 -84.960938 91.320312 -86.640625 92.640625 -88.800781 C 93.238281 -89.878906 93.839844 -91.078125 93.960938 -91.679688 C 93.839844 -92.28125 93.839844 -92.519531 93.71875 -92.28125 C 93.601562 -91.921875 93.359375 -91.800781 93.121094 -91.800781 C 92.519531 -91.800781 93.359375 -92.878906 94.199219 -93.121094 C 95.039062 -93.359375 95.039062 -93.359375 94.441406 -93.960938 C 93.601562 -94.679688 93.839844 -95.878906 94.800781 -95.519531 C 95.640625 -95.160156 95.878906 -96 95.160156 -96.359375 C 94.558594 -96.480469 94.679688 -99 95.160156 -98.878906 C 95.398438 -98.878906 95.519531 -99 95.519531 -99.238281 C 95.398438 -100.078125 96.480469 -102.960938 97.320312 -103.679688 C 98.28125 -104.640625 98.398438 -105.238281 97.800781 -105.238281 C 97.320312 -105.359375 97.320312 -107.039062 97.800781 -107.640625 C 98.039062 -107.878906 98.160156 -108.121094 98.039062 -108.121094 C 97.800781 -108.121094 97.921875 -108.359375 98.160156 -108.601562 C 98.398438 -108.839844 98.761719 -109.800781 99 -110.640625 C 99.121094 -111.601562 99.480469 -112.441406 99.71875 -112.558594 C 99.839844 -112.679688 100.199219 -113.398438 100.199219 -114.121094 C 100.441406 -114.71875 100.800781 -115.800781 101.28125 -116.28125 C 101.761719 -116.878906 101.878906 -117.238281 101.519531 -117 C 101.160156 -116.761719 101.039062 -117.121094 101.398438 -118.320312 C 102.601562 -122.28125 103.078125 -123.601562 103.679688 -123.839844 C 104.398438 -123.960938 104.640625 -125.160156 104.039062 -125.28125 C 103.558594 -125.398438 103.800781 -126 104.398438 -127.679688 C 105 -128.761719 105.71875 -130.199219 105.960938 -130.800781 C 106.441406 -131.519531 106.441406 -131.761719 106.078125 -131.878906 C 105.480469 -132.121094 105.601562 -132.839844 106.320312 -132.839844 C 106.679688 -132.839844 106.921875 -133.199219 107.039062 -133.800781 C 107.039062 -134.28125 106.921875 -134.761719 106.800781 -134.761719 C 106.679688 -134.761719 106.679688 -137.039062 107.160156 -139.800781 C 107.761719 -144.71875 107.640625 -146.28125 106.921875 -143.398438 C 106.558594 -142.558594 106.320312 -141 106.199219 -139.800781 C 105.960938 -138.480469 105.71875 -137.640625 105.480469 -137.640625 C 105.238281 -137.640625 105.121094 -137.519531 105.121094 -137.160156 C 105.238281 -136.800781 105.121094 -135.601562 104.761719 -134.398438 C 104.398438 -132.960938 104.28125 -132.71875 104.28125 -133.441406 L 104.28125 -134.640625 L 103.921875 -133.441406 C 103.558594 -132.839844 103.441406 -131.761719 103.441406 -131.160156 C 103.558594 -130.558594 103.320312 -130.078125 103.078125 -129.839844 C 102.601562 -129.71875 102.601562 -129.480469 102.960938 -129.238281 C 103.320312 -129.121094 103.320312 -128.761719 102.960938 -128.398438 C 102.71875 -128.039062 102.359375 -127.078125 102.121094 -126.121094 C 101.878906 -125.039062 101.398438 -123.480469 101.039062 -122.519531 C 100.679688 -121.558594 100.078125 -119.761719 99.839844 -118.679688 C 99.480469 -117.601562 99 -115.800781 98.519531 -114.71875 C 98.039062 -112.921875 96.960938 -109.558594 96.238281 -106.800781 C 95.878906 -105.960938 95.761719 -105.839844 95.28125 -106.320312 C 95.039062 -106.558594 94.800781 -106.558594 94.441406 -106.199219 C 93.71875 -105.359375 93.839844 -104.640625 94.441406 -104.640625 C 94.800781 -104.519531 95.039062 -104.761719 95.160156 -105.121094 C 95.28125 -105.359375 95.398438 -105 95.28125 -104.28125 C 95.160156 -103.558594 94.921875 -102.960938 94.800781 -102.960938 C 94.558594 -102.960938 94.441406 -102.71875 94.558594 -102.359375 C 94.679688 -101.761719 94.078125 -99.601562 93.121094 -97.800781 C 93 -97.441406 92.878906 -96.71875 92.761719 -96.121094 C 92.761719 -95.519531 92.519531 -95.039062 92.398438 -95.039062 C 92.160156 -95.039062 92.039062 -94.558594 92.039062 -93.960938 C 92.160156 -93.238281 92.039062 -93 91.800781 -93 C 91.441406 -93 91.320312 -92.761719 91.441406 -92.039062 C 91.558594 -90.71875 90.121094 -86.160156 89.519531 -85.679688 C 89.160156 -85.558594 89.28125 -85.441406 89.640625 -85.441406 C 89.878906 -85.441406 90 -85.199219 89.761719 -84.960938 C 89.640625 -84.601562 89.398438 -83.878906 89.28125 -83.160156 C 89.28125 -82.441406 89.160156 -81.839844 88.921875 -81.601562 C 88.800781 -81.480469 86.640625 -81.480469 84.359375 -81.480469 C 82.078125 -81.480469 80.160156 -81.359375 80.039062 -81.238281 C 79.921875 -81.121094 78.839844 -81.121094 77.761719 -81.121094 C 76.558594 -81.238281 75.480469 -81.238281 75.359375 -81 C 75.238281 -80.761719 74.761719 -80.878906 74.160156 -81 C 73.679688 -81 72.71875 -80.878906 72 -80.640625 C 71.28125 -80.28125 70.441406 -80.039062 70.199219 -80.160156 C 69.960938 -80.28125 69.359375 -80.28125 68.761719 -80.039062 C 68.039062 -79.800781 67.558594 -79.800781 67.558594 -80.160156 C 67.441406 -80.398438 67.199219 -80.398438 66.71875 -80.28125 C 66.238281 -80.039062 65.640625 -80.039062 65.398438 -80.039062 C 65.160156 -80.160156 64.921875 -79.921875 64.921875 -79.679688 C 64.800781 -79.558594 64.558594 -79.320312 64.199219 -79.320312 C 63.601562 -79.320312 63.601562 -79.441406 64.078125 -79.679688 C 64.679688 -80.160156 64.558594 -80.160156 63.960938 -79.921875 C 63.480469 -79.800781 62.640625 -79.679688 61.921875 -79.679688 C 61.441406 -79.800781 60.71875 -79.558594 60.238281 -79.199219 C 59.761719 -78.601562 59.640625 -78.601562 59.398438 -78.960938 C 59.160156 -79.441406 58.921875 -79.441406 57.839844 -78.960938 C 57.121094 -78.601562 56.519531 -78.480469 56.640625 -78.71875 C 56.640625 -79.320312 53.398438 -78.839844 52.078125 -78 C 50.761719 -77.160156 47.761719 -76.441406 47.878906 -77.039062 C 47.878906 -77.160156 48.121094 -77.398438 48.480469 -77.398438 C 48.839844 -77.398438 49.078125 -77.761719 49.199219 -78.71875 C 49.320312 -79.679688 49.679688 -80.28125 50.398438 -80.878906 C 51.121094 -81.480469 51.480469 -81.960938 51.359375 -82.558594 C 51.359375 -83.039062 51.359375 -83.28125 51.71875 -83.28125 C 51.839844 -83.28125 52.078125 -83.640625 52.199219 -84 C 52.199219 -84.359375 52.558594 -85.558594 53.039062 -86.519531 C 53.519531 -87.359375 53.761719 -88.441406 53.640625 -88.800781 C 53.640625 -89.160156 53.640625 -89.28125 53.761719 -89.160156 C 54.121094 -88.800781 55.078125 -89.640625 55.199219 -90.359375 C 55.199219 -90.601562 55.800781 -91.800781 56.519531 -93 C 57.121094 -94.199219 57.71875 -95.398438 57.839844 -95.640625 C 57.839844 -95.761719 58.078125 -96 58.199219 -96 C 58.441406 -96 58.921875 -96.71875 59.398438 -97.441406 C 59.878906 -98.28125 60.359375 -99.238281 60.601562 -99.601562 C 60.839844 -100.078125 61.078125 -100.679688 61.199219 -101.039062 C 61.199219 -101.398438 61.679688 -102.359375 62.28125 -102.960938 C 62.878906 -103.558594 63.238281 -104.28125 63.238281 -104.761719 C 63.238281 -105.359375 63.359375 -105.480469 63.839844 -105.480469 C 64.078125 -105.480469 64.320312 -105.71875 64.199219 -105.839844 C 64.199219 -105.960938 64.558594 -106.679688 64.921875 -107.160156 C 65.519531 -107.761719 65.640625 -108.238281 65.519531 -108.359375 C 65.039062 -108.480469 67.320312 -111.839844 67.800781 -111.839844 C 68.039062 -111.839844 68.398438 -112.441406 68.640625 -113.039062 C 69 -114.601562 70.800781 -117.359375 71.28125 -117.359375 C 71.519531 -117.359375 71.640625 -117.480469 71.640625 -117.839844 C 71.640625 -118.078125 72 -118.441406 72.359375 -118.679688 C 72.71875 -118.921875 73.320312 -119.878906 73.558594 -120.839844 C 74.039062 -121.921875 74.640625 -123.121094 75.238281 -123.839844 C 75.71875 -124.558594 76.441406 -125.398438 76.800781 -126 C 77.160156 -126.480469 77.640625 -127.320312 77.878906 -127.558594 C 78.121094 -127.921875 78.71875 -128.761719 79.078125 -129.601562 C 80.398438 -132 81.960938 -134.28125 83.761719 -136.320312 C 84.71875 -137.519531 86.160156 -139.441406 87.121094 -140.761719 C 87.960938 -142.320312 89.160156 -143.640625 89.761719 -144 C 90.238281 -144.480469 90.839844 -145.078125 91.078125 -145.679688 C 91.441406 -146.640625 98.160156 -154.320312 100.679688 -156.960938 C 101.761719 -157.921875 103.078125 -158.761719 103.558594 -158.878906 C 104.039062 -158.761719 104.761719 -159.121094 105 -159.359375 C 106.800781 -160.921875 108 -161.761719 108.359375 -161.519531 C 108.601562 -161.28125 108.601562 -160.199219 108.359375 -152.398438 C 108.238281 -149.519531 108.238281 -149.28125 109.078125 -149.160156 C 110.640625 -149.160156 110.761719 -148.800781 109.921875 -143.398438 C 109.441406 -140.519531 108.839844 -138 108.71875 -137.878906 C 108.601562 -137.640625 108.238281 -135.960938 107.878906 -134.039062 C 107.640625 -132.121094 107.160156 -130.320312 107.039062 -130.199219 C 106.800781 -129.839844 106.441406 -129.121094 106.441406 -128.28125 C 106.441406 -127.558594 106.199219 -126.71875 105.960938 -126.359375 C 105.359375 -125.640625 105 -123.238281 105.238281 -122.28125 C 105.480469 -121.441406 105.480469 -121.441406 105.839844 -122.519531 C 106.441406 -124.320312 108.359375 -132.238281 108.839844 -134.761719 C 109.078125 -135.960938 109.558594 -137.398438 109.921875 -138.121094 C 110.039062 -138.839844 110.519531 -140.761719 110.761719 -142.558594 C 111 -144.359375 111.238281 -146.28125 111.480469 -146.878906 C 111.601562 -147.601562 111.960938 -149.160156 112.078125 -150.480469 C 112.320312 -151.679688 112.558594 -152.878906 112.800781 -152.878906 C 113.28125 -153.238281 113.28125 -150.960938 112.800781 -150.359375 C 112.558594 -150.121094 112.558594 -149.878906 112.800781 -149.761719 C 112.921875 -149.640625 113.28125 -149.640625 113.398438 -149.878906 C 113.519531 -150.121094 113.761719 -150.238281 114 -150.238281 C 114.359375 -150.238281 114.601562 -147.71875 114.121094 -147.359375 C 114 -147.238281 113.761719 -145.800781 113.640625 -144.121094 L 113.398438 -141.238281 L 114.121094 -143.039062 C 114.960938 -144.71875 114.960938 -144.71875 114.238281 -141.480469 Z M 115.441406 -145.800781 C 115.441406 -145.558594 115.199219 -145.441406 114.960938 -145.441406 C 114.839844 -145.441406 114.601562 -145.679688 114.71875 -145.800781 C 114.71875 -146.039062 114.960938 -146.28125 115.078125 -146.28125 C 115.320312 -146.160156 115.441406 -146.039062 115.441406 -145.800781 Z M 103.078125 -115.441406 C 102.839844 -115.320312 101.160156 -110.519531 100.800781 -108.839844 C 100.679688 -108.359375 100.320312 -107.28125 99.960938 -106.441406 C 99.601562 -105.601562 99.359375 -104.640625 99.238281 -104.160156 C 99.121094 -103.199219 99.960938 -102.960938 100.078125 -103.921875 C 100.320312 -105.238281 101.640625 -109.800781 102.480469 -111.839844 C 103.078125 -113.039062 103.441406 -115.921875 103.078125 -115.441406 Z M 88.441406 -52.800781 C 88.320312 -52.921875 88.199219 -52.679688 88.199219 -52.320312 C 88.199219 -51.71875 88.199219 -51.71875 88.441406 -51.960938 C 88.558594 -52.199219 88.558594 -52.679688 88.441406 -52.800781 Z M 85.679688 -35.398438 L 85.800781 -34.199219 L 86.039062 -35.28125 C 86.28125 -36 86.28125 -36.601562 86.160156 -36.71875 C 85.800781 -37.199219 85.679688 -36.601562 85.679688 -35.398438 Z M 17.761719 -43.441406 C 18 -43.921875 18 -44.398438 17.878906 -44.398438 C 17.28125 -44.761719 17.039062 -44.160156 17.160156 -43.441406 C 17.398438 -42.71875 17.398438 -42.839844 17.761719 -43.441406 Z M 74.039062 -135.960938 C 74.878906 -136.921875 75 -137.519531 74.160156 -136.921875 C 73.800781 -136.679688 73.441406 -136.199219 73.441406 -135.839844 C 73.320312 -135.238281 73.441406 -135.238281 74.039062 -135.960938 Z M 100.800781 -138.960938 C 100.679688 -138.960938 100.558594 -138.839844 100.558594 -138.601562 C 100.558594 -138.359375 100.679688 -138.238281 100.921875 -138.238281 C 101.160156 -138.238281 101.28125 -138.359375 101.160156 -138.601562 C 101.039062 -138.839844 100.921875 -138.960938 100.800781 -138.960938 Z M 94.320312 -161.878906 C 95.28125 -162.71875 95.519531 -163.320312 94.921875 -163.320312 C 94.679688 -163.320312 94.441406 -163.078125 94.441406 -162.71875 C 94.441406 -162.480469 94.199219 -162.121094 93.960938 -162.121094 C 93.839844 -162.121094 93.601562 -162 93.480469 -161.640625 C 93.480469 -161.398438 93.839844 -161.519531 94.320312 -161.878906 Z M 85.320312 -45.960938 C 85.800781 -46.558594 86.398438 -48.480469 86.28125 -49.558594 C 86.160156 -49.679688 86.160156 -50.398438 86.039062 -51.121094 L 86.039062 -52.320312 L 85.558594 -51.238281 C 85.320312 -50.519531 85.199219 -49.800781 85.320312 -49.320312 C 85.320312 -48.839844 85.320312 -48.480469 85.078125 -48.480469 C 84.839844 -48.601562 84.480469 -46.199219 84.601562 -45.359375 C 84.601562 -45.238281 84.960938 -45.480469 85.320312 -45.960938 Z M 96.601562 -94.320312 C 96.238281 -94.078125 95.039062 -90.71875 94.441406 -88.078125 C 94.441406 -87.601562 94.199219 -86.878906 94.078125 -86.640625 C 93.960938 -86.519531 93.960938 -85.921875 93.960938 -85.441406 C 93.839844 -84.121094 94.800781 -85.679688 94.921875 -87.238281 C 95.039062 -88.078125 95.519531 -89.761719 96 -91.078125 C 96.960938 -93.839844 97.078125 -94.558594 96.601562 -94.320312 Z M 94.199219 -84.359375 C 93.960938 -84.238281 93.601562 -84 93.480469 -83.640625 C 93.359375 -83.398438 93.480469 -83.28125 93.71875 -83.398438 C 94.078125 -83.519531 94.320312 -83.761719 94.441406 -84.121094 C 94.679688 -84.359375 94.558594 -84.480469 94.199219 -84.359375 Z M 97.320312 -97.078125 C 97.320312 -96.121094 97.320312 -95.878906 97.441406 -96.359375 C 97.679688 -96.839844 97.679688 -97.558594 97.679688 -97.921875 C 97.679688 -98.398438 97.441406 -97.921875 97.320312 -97.078125 Z M 62.761719 -125.28125 C 63 -125.519531 63.238281 -126 63.359375 -126.238281 C 63.359375 -126.480469 63.121094 -126.359375 62.878906 -126 C 62.640625 -125.761719 62.398438 -125.28125 62.398438 -125.039062 C 62.398438 -124.800781 62.519531 -124.921875 62.761719 -125.28125 Z M 79.199219 -136.199219 C 79.441406 -136.558594 79.800781 -136.800781 80.28125 -136.921875 C 80.640625 -137.039062 81 -137.398438 81 -137.519531 C 81 -137.761719 80.640625 -137.640625 80.039062 -137.398438 C 79.441406 -137.039062 78.960938 -136.558594 78.839844 -136.320312 C 78.839844 -135.960938 78.960938 -135.960938 79.199219 -136.199219 Z M 73.078125 -126.121094 C 73.199219 -126.121094 73.441406 -126.359375 73.441406 -126.480469 C 73.441406 -126.71875 74.039062 -127.558594 74.640625 -128.519531 C 75.359375 -129.359375 76.078125 -130.558594 76.320312 -131.160156 C 76.800781 -132.121094 76.679688 -132.121094 75.359375 -130.679688 C 74.398438 -129.960938 73.800781 -128.878906 73.679688 -128.640625 C 73.679688 -128.28125 73.441406 -128.160156 73.320312 -128.160156 C 73.199219 -128.160156 72.960938 -127.800781 72.839844 -127.199219 C 72.839844 -126.601562 72.960938 -126.121094 73.078125 -126.121094 Z M 78.238281 -133.800781 C 78.238281 -134.160156 78.121094 -134.398438 77.878906 -134.398438 C 77.398438 -134.398438 77.039062 -133.921875 77.28125 -133.558594 C 77.640625 -133.078125 78.121094 -133.199219 78.238281 -133.800781 Z M 63.121094 -110.878906 C 64.199219 -112.679688 65.398438 -114.601562 65.878906 -115.320312 C 68.160156 -118.441406 72.121094 -125.039062 72.121094 -125.519531 C 72 -125.761719 71.640625 -125.519531 71.398438 -124.921875 C 71.039062 -124.320312 70.679688 -123.839844 70.558594 -123.839844 C 70.320312 -123.839844 69.601562 -122.761719 69 -121.558594 C 68.398438 -120.238281 67.441406 -118.921875 67.078125 -118.679688 C 66.71875 -118.320312 66 -117.238281 65.640625 -116.398438 C 65.28125 -115.558594 64.679688 -114.601562 64.320312 -114.480469 C 64.078125 -114.480469 63.839844 -114.121094 63.839844 -113.878906 C 63.71875 -113.160156 62.398438 -110.878906 61.320312 -109.558594 C 60.839844 -109.078125 60.480469 -108.359375 60.359375 -107.878906 C 60.238281 -106.558594 61.078125 -107.519531 63.121094 -110.878906 Z M 63.121094 -110.878906 "/></g></g></g><g fill="#ffffff" fill-opacity="1"><g transform="translate(214.076067, 247.499984)"><g><path d="M 24.121094 -39.238281 C 24.359375 -40.078125 24.359375 -40.199219 23.761719 -39.71875 C 23.398438 -39.480469 23.160156 -39.121094 23.160156 -39 C 23.160156 -38.519531 23.761719 -38.640625 24.121094 -39.238281 Z M 23.039062 -51.71875 C 23.28125 -51.960938 23.519531 -52.320312 23.519531 -52.441406 C 23.519531 -52.679688 23.28125 -52.679688 23.039062 -52.441406 C 22.679688 -52.078125 22.441406 -51.71875 22.441406 -51.601562 C 22.441406 -51.359375 22.679688 -51.359375 23.039062 -51.71875 Z M 36.238281 -30.480469 C 36.121094 -30.238281 36.359375 -30.121094 36.71875 -30.238281 C 36.960938 -30.359375 37.199219 -30.601562 37.199219 -30.839844 C 37.199219 -31.320312 36.480469 -30.960938 36.238281 -30.480469 Z M 39.960938 -33.238281 C 39.839844 -33.121094 39.960938 -32.878906 40.320312 -32.878906 C 40.558594 -32.878906 40.921875 -33.121094 40.921875 -33.238281 C 40.921875 -33.480469 40.679688 -33.601562 40.558594 -33.601562 C 40.320312 -33.601562 40.078125 -33.480469 39.960938 -33.238281 Z M 35.039062 -29.519531 C 34.679688 -29.28125 34.320312 -29.039062 34.320312 -28.800781 C 34.320312 -28.679688 34.679688 -28.800781 35.039062 -29.039062 C 35.398438 -29.28125 35.761719 -29.519531 35.761719 -29.761719 C 35.761719 -29.878906 35.398438 -29.878906 35.039062 -29.519531 Z M 33 -27.480469 C 32.878906 -27.480469 32.519531 -27.238281 32.160156 -27 C 31.921875 -26.640625 31.921875 -26.398438 32.160156 -26.398438 C 32.28125 -26.398438 32.640625 -26.640625 32.878906 -27 C 33.238281 -27.238281 33.238281 -27.480469 33 -27.480469 Z M 31.800781 -65.28125 C 31.558594 -64.921875 31.558594 -64.679688 31.679688 -64.679688 C 31.800781 -64.679688 33.238281 -67.320312 33.238281 -67.441406 C 33 -67.679688 32.160156 -66.238281 31.800781 -65.28125 Z M 29.28125 -61.558594 C 29.160156 -61.558594 28.921875 -61.199219 28.921875 -61.078125 C 28.921875 -60.480469 29.28125 -60.601562 29.519531 -61.199219 C 29.640625 -61.558594 29.519531 -61.679688 29.28125 -61.558594 Z M 30.359375 -66.839844 C 30.121094 -66.839844 28.921875 -64.679688 28.921875 -64.078125 C 28.921875 -64.078125 29.28125 -64.441406 29.878906 -64.921875 C 30.71875 -66 31.078125 -66.839844 30.359375 -66.839844 Z M 32.160156 -68.878906 C 32.398438 -68.878906 32.519531 -69.238281 32.519531 -69.480469 C 32.519531 -69.601562 32.398438 -69.601562 32.160156 -69.601562 C 32.039062 -69.480469 31.800781 -69.238281 31.800781 -69 C 31.800781 -68.761719 32.039062 -68.761719 32.160156 -68.878906 Z M 27.121094 -57.839844 C 27 -57.839844 26.761719 -57.601562 26.398438 -57.238281 C 26.160156 -57 26.039062 -56.761719 26.160156 -56.761719 C 26.28125 -56.761719 26.519531 -57 26.761719 -57.238281 C 27.121094 -57.601562 27.121094 -57.839844 27.121094 -57.839844 Z M 28.320312 -63.121094 C 27.839844 -62.878906 24.238281 -57.71875 23.519531 -56.398438 C 23.039062 -55.558594 23.039062 -55.441406 23.640625 -56.039062 C 24.238281 -56.519531 26.398438 -59.519531 26.398438 -59.878906 C 26.398438 -60 26.761719 -60.480469 27.238281 -61.199219 C 28.441406 -62.761719 28.800781 -63.359375 28.320312 -63.121094 Z M 24.71875 -54.71875 C 24.121094 -53.878906 23.640625 -53.160156 23.761719 -53.160156 C 24 -53.160156 25.199219 -54.359375 25.558594 -55.320312 C 26.519531 -56.761719 25.921875 -56.398438 24.71875 -54.71875 Z M 35.160156 -74.039062 C 34.921875 -74.039062 33.359375 -71.761719 33 -70.679688 C 32.878906 -70.558594 33 -70.441406 33.238281 -70.441406 C 33.359375 -70.441406 33.960938 -71.28125 34.441406 -72.238281 C 35.039062 -73.199219 35.28125 -74.039062 35.160156 -74.039062 Z M 34.320312 -69.71875 C 34.199219 -69.359375 34.078125 -69 34.320312 -69 C 34.679688 -69 35.160156 -70.078125 34.921875 -70.320312 C 34.800781 -70.441406 34.679688 -70.199219 34.320312 -69.71875 Z M 40.921875 -73.679688 C 40.679688 -73.679688 40.558594 -73.441406 40.558594 -73.199219 C 40.558594 -72.839844 40.679688 -72.71875 40.921875 -72.839844 C 41.28125 -73.078125 41.28125 -73.679688 40.921875 -73.679688 Z M 40.320312 -81.960938 C 40.921875 -81.601562 40.921875 -81.601562 40.921875 -82.921875 C 40.921875 -83.761719 40.679688 -84.121094 40.441406 -84.121094 C 39.839844 -83.878906 39.839844 -82.320312 40.320312 -81.960938 Z M 40.199219 -78.71875 C 40.558594 -78.71875 41.039062 -79.800781 40.800781 -80.160156 C 40.679688 -80.160156 40.441406 -79.921875 40.199219 -79.441406 C 39.839844 -79.078125 39.839844 -78.71875 40.199219 -78.71875 Z M 38.039062 -75 C 38.28125 -75.359375 38.398438 -75.601562 38.28125 -75.71875 C 38.160156 -75.71875 38.039062 -75.601562 37.800781 -75.238281 C 37.679688 -74.761719 37.679688 -74.640625 38.039062 -75 Z M 36.121094 -71.640625 C 36.359375 -72 36.480469 -72.359375 36.480469 -72.480469 C 36.121094 -72.839844 35.398438 -72 35.398438 -71.398438 C 35.398438 -71.160156 35.761719 -71.28125 36.121094 -71.640625 Z M 36.121094 -75.121094 C 36.359375 -75.121094 36.480469 -75.359375 36.480469 -75.601562 C 36.480469 -75.71875 36.839844 -76.320312 37.199219 -76.800781 C 37.800781 -77.28125 37.921875 -77.640625 37.679688 -77.878906 C 37.441406 -78 37.199219 -78 37.199219 -77.640625 C 37.199219 -77.519531 36.839844 -76.921875 36.480469 -76.441406 C 36.121094 -76.078125 35.761719 -75.601562 35.761719 -75.359375 C 35.761719 -75.238281 36 -75.121094 36.121094 -75.121094 Z M 36 -68.28125 C 35.761719 -68.28125 35.398438 -68.160156 35.398438 -67.921875 C 35.398438 -67.800781 35.640625 -67.558594 35.761719 -67.558594 C 36 -67.558594 36.238281 -67.800781 36.359375 -67.921875 C 36.480469 -68.160156 36.359375 -68.28125 36 -68.28125 Z M 38.160156 -72.601562 C 38.039062 -72.121094 37.800781 -71.878906 37.679688 -71.878906 C 37.441406 -71.878906 37.199219 -71.398438 37.078125 -70.679688 C 36.960938 -69.960938 36.71875 -69.359375 36.480469 -69.238281 C 36.121094 -69.121094 36.121094 -69.121094 36.480469 -69 C 36.71875 -69 37.078125 -69.359375 37.199219 -69.839844 C 37.558594 -70.320312 38.039062 -70.921875 38.398438 -71.28125 C 38.640625 -71.519531 39.480469 -72.839844 40.078125 -74.160156 L 41.28125 -76.441406 L 39.839844 -74.878906 C 39.121094 -73.921875 38.28125 -72.960938 38.160156 -72.601562 Z M 10.921875 -18.359375 C 11.039062 -18.71875 10.800781 -18.839844 10.199219 -18.359375 C 9.839844 -18 9.359375 -17.640625 9.359375 -17.398438 C 9.359375 -17.28125 9.359375 -17.160156 9.601562 -17.160156 C 10.078125 -17.039062 10.800781 -17.761719 10.921875 -18.359375 Z M 6.960938 -13.921875 C 7.320312 -14.28125 7.558594 -14.519531 7.441406 -14.761719 C 7.199219 -15.121094 6.359375 -14.398438 6.359375 -13.679688 C 6.359375 -13.558594 6.601562 -13.558594 6.960938 -13.921875 Z M 13.679688 -19.199219 C 14.160156 -19.921875 14.160156 -19.921875 13.558594 -19.558594 C 13.199219 -19.320312 12.839844 -18.960938 12.839844 -18.839844 C 12.71875 -18.238281 13.078125 -18.480469 13.679688 -19.199219 Z M 12.121094 -19.199219 C 12.601562 -19.320312 12.71875 -20.039062 12.238281 -20.039062 C 12.121094 -20.039062 11.878906 -19.800781 11.761719 -19.558594 C 11.761719 -19.199219 11.878906 -19.078125 12.121094 -19.199219 Z M 16.320312 -23.761719 L 15.359375 -22.679688 L 16.320312 -23.398438 C 16.800781 -23.761719 17.160156 -24.238281 17.039062 -24.480469 C 17.160156 -24.71875 16.679688 -24.359375 16.320312 -23.761719 Z M 56.160156 -89.039062 C 55.921875 -89.640625 55.558594 -90.121094 55.558594 -90.359375 C 55.199219 -91.078125 53.398438 -93.71875 53.039062 -93.71875 C 52.558594 -93.839844 52.558594 -94.679688 53.160156 -96 C 53.878906 -97.441406 53.519531 -98.398438 52.558594 -97.800781 C 51.960938 -97.441406 51.960938 -97.441406 52.320312 -98.28125 C 52.800781 -99.601562 52.199219 -99.601562 51.480469 -98.28125 C 51.121094 -97.441406 51 -97.078125 51.359375 -96.960938 C 51.839844 -96.480469 51.601562 -96.359375 50.640625 -96.121094 C 49.558594 -96 48.71875 -96.71875 49.441406 -97.199219 C 49.679688 -97.441406 49.921875 -98.039062 50.039062 -98.519531 C 50.160156 -99.359375 49.921875 -99.238281 49.078125 -97.921875 C 48.480469 -96.960938 47.878906 -96.480469 47.28125 -96.480469 C 46.320312 -96.359375 46.320312 -96.238281 45.839844 -94.320312 C 44.28125 -95.640625 41.878906 -97.320312 39.480469 -98.398438 C 36.839844 -99.839844 36.601562 -99.839844 33.238281 -99.839844 C 29.640625 -99.839844 25.558594 -99 24.839844 -97.921875 C 24.480469 -97.558594 24 -97.558594 23.398438 -97.558594 C 22.558594 -97.800781 21.960938 -97.320312 18 -93.359375 C 12.121094 -87.359375 10.199219 -84.480469 5.519531 -75.359375 C 4.078125 -72.71875 2.878906 -70.199219 2.640625 -69.839844 C 2.039062 -68.878906 0.121094 -63.480469 -0.238281 -61.921875 C -0.480469 -61.199219 -0.960938 -59.398438 -1.320312 -57.839844 C -2.761719 -52.320312 -3 -50.640625 -3 -45.960938 C -3 -41.761719 -2.878906 -40.679688 -2.160156 -38.640625 C -1.679688 -37.320312 -1.078125 -36 -0.71875 -35.761719 C -0.480469 -35.398438 0.480469 -34.441406 1.199219 -33.359375 C 1.921875 -32.28125 3.359375 -31.078125 4.320312 -30.601562 C 5.28125 -30 6.359375 -29.28125 6.71875 -28.921875 C 7.558594 -28.199219 10.320312 -27.480469 11.878906 -27.480469 C 12.480469 -27.480469 13.199219 -27.839844 13.800781 -28.199219 C 14.28125 -28.558594 14.878906 -28.921875 15.121094 -28.921875 C 15.960938 -28.921875 19.441406 -32.039062 19.441406 -32.761719 C 19.558594 -34.679688 19.800781 -35.519531 20.878906 -36.960938 C 22.800781 -39.960938 27.601562 -47.160156 28.558594 -48.601562 C 29.039062 -49.441406 29.761719 -50.519531 30.238281 -51.121094 C 30.960938 -52.199219 35.398438 -59.039062 39.960938 -65.878906 C 41.28125 -68.160156 42.960938 -70.679688 43.441406 -71.519531 C 43.558594 -71.761719 43.679688 -72.121094 43.921875 -72.359375 C 42.960938 -67.320312 41.761719 -61.320312 41.039062 -59.761719 C 40.800781 -59.039062 39.960938 -56.640625 39.238281 -54.238281 C 37.800781 -49.441406 32.039062 -34.199219 31.441406 -33.71875 C 31.320312 -33.480469 31.199219 -33.238281 31.320312 -33.121094 C 31.320312 -33 31.199219 -32.640625 30.839844 -32.28125 C 30.480469 -32.039062 30.238281 -31.558594 30.359375 -31.441406 C 30.480469 -31.320312 30.238281 -31.199219 29.878906 -31.199219 C 29.640625 -31.320312 29.398438 -31.078125 29.519531 -30.960938 C 29.519531 -30.839844 28.679688 -30.121094 27.71875 -29.519531 C 24.71875 -27.601562 18.839844 -22.921875 15 -19.320312 C 14.398438 -18.71875 10.558594 -14.519531 9.71875 -13.558594 C 9.601562 -13.199219 7.921875 -11.519531 6.359375 -9.601562 C 4.800781 -7.679688 2.398438 -4.800781 1.199219 -3.238281 C -0.601562 -0.480469 -0.839844 -0.238281 -0.480469 -1.441406 C -0.238281 -2.28125 0 -3.238281 0.121094 -3.601562 C 0.121094 -3.960938 0.359375 -4.441406 0.71875 -4.679688 C 0.960938 -4.921875 1.199219 -5.398438 0.960938 -5.640625 C 0.960938 -6 1.199219 -6.238281 1.558594 -6.121094 C 2.160156 -6.121094 2.160156 -6.121094 1.679688 -6.960938 C 1.199219 -7.441406 1.199219 -7.679688 1.441406 -7.441406 C 1.679688 -7.320312 1.921875 -7.320312 1.921875 -7.558594 C 2.039062 -8.398438 0.960938 -7.800781 0 -6.359375 C -0.71875 -5.160156 -0.960938 -4.800781 -0.601562 -4.558594 C -0.238281 -4.320312 -0.359375 -4.078125 -0.960938 -4.078125 C -1.921875 -3.960938 -2.160156 -3.480469 -1.441406 -3 C -0.601562 -2.640625 -0.839844 -2.039062 -1.800781 -2.398438 C -2.519531 -2.640625 -2.761719 -2.519531 -3.601562 -1.199219 C -4.078125 -0.359375 -4.800781 0.359375 -4.921875 0.359375 C -5.160156 0.238281 -5.28125 0.480469 -5.398438 0.839844 C -5.398438 1.199219 -5.640625 1.679688 -5.878906 1.921875 C -7.078125 2.878906 -7.320312 11.28125 -6.359375 13.800781 C -5.640625 15.359375 -2.640625 18.601562 -0.839844 19.800781 C 0 20.28125 0.839844 20.878906 1.078125 21.121094 C 1.320312 21.359375 3 21.71875 4.921875 21.960938 C 7.441406 22.320312 8.640625 22.199219 9.960938 21.839844 C 12 21.359375 16.199219 18.359375 18 16.199219 C 18.71875 15.359375 19.320312 14.761719 19.441406 14.761719 C 19.800781 14.761719 23.039062 10.800781 24 9.238281 C 24.359375 8.398438 24.960938 7.800781 25.078125 7.800781 C 25.441406 7.800781 28.800781 2.761719 30.839844 -0.960938 C 31.441406 -1.921875 32.878906 -4.199219 33.960938 -6 C 36.601562 -9.960938 36.601562 -10.078125 37.558594 -12.839844 C 37.921875 -14.039062 38.761719 -15.960938 39.359375 -16.921875 C 40.800781 -19.078125 52.199219 -41.398438 56.160156 -67.558594 C 57.359375 -74.878906 56.28125 -73.441406 56.519531 -78.71875 C 56.761719 -84.71875 56.640625 -87.960938 56.160156 -89.039062 Z M -1.800781 1.441406 C -2.398438 2.160156 -3 2.28125 -2.878906 1.441406 C -2.878906 0.960938 -1.679688 0.121094 -1.558594 0.480469 C -1.320312 0.601562 -1.441406 0.960938 -1.800781 1.441406 Z M 21.601562 -22.441406 C 21.839844 -22.441406 22.078125 -22.679688 22.078125 -23.160156 C 22.199219 -23.519531 22.320312 -23.878906 22.679688 -23.878906 C 22.921875 -24 23.160156 -24.238281 23.160156 -24.601562 C 23.28125 -24.960938 23.519531 -25.320312 23.761719 -25.441406 C 24 -25.441406 24.121094 -25.199219 24 -24.960938 C 23.761719 -24.71875 23.761719 -24.359375 24.121094 -24.359375 C 24.480469 -24.359375 24.238281 -24 23.640625 -23.761719 C 23.160156 -23.398438 22.800781 -22.921875 22.921875 -22.800781 C 23.039062 -22.558594 22.679688 -22.320312 22.199219 -22.199219 C 21.601562 -21.960938 21.238281 -21.960938 21.238281 -22.199219 C 21.238281 -22.320312 21.480469 -22.558594 21.601562 -22.441406 Z M 5.878906 -6.121094 C 6.238281 -6.480469 6.601562 -7.078125 6.601562 -7.441406 C 6.601562 -7.800781 6.839844 -8.039062 6.960938 -8.039062 C 7.199219 -7.921875 8.398438 -9.601562 8.398438 -10.199219 C 8.398438 -10.441406 9.238281 -11.28125 10.320312 -11.878906 C 11.28125 -12.71875 12 -13.441406 12 -13.679688 C 11.761719 -13.800781 12 -13.921875 12.359375 -13.800781 C 12.601562 -13.800781 12.960938 -14.039062 12.960938 -14.28125 C 12.960938 -14.640625 13.320312 -14.878906 13.558594 -15.121094 C 14.039062 -15.359375 14.160156 -15.839844 14.160156 -16.320312 C 14.039062 -16.679688 14.160156 -16.921875 14.519531 -16.800781 C 15 -16.800781 17.878906 -18.601562 18 -19.078125 C 18 -19.800781 19.558594 -21.121094 19.800781 -20.761719 C 20.039062 -20.519531 18.121094 -18.359375 17.039062 -17.761719 C 16.679688 -17.519531 16.558594 -17.28125 16.679688 -17.28125 C 16.921875 -17.28125 16.441406 -16.921875 15.839844 -16.558594 C 15.238281 -16.078125 14.519531 -15.480469 14.519531 -15.238281 C 14.519531 -14.878906 14.398438 -14.640625 14.160156 -14.640625 C 13.921875 -14.519531 11.398438 -11.761719 9.601562 -9.601562 C 9.121094 -9 8.160156 -7.800781 7.199219 -6.71875 C 6.359375 -5.761719 5.640625 -4.921875 5.519531 -4.921875 C 5.039062 -4.921875 5.28125 -5.398438 5.878906 -6.121094 Z M 4.320312 -3.960938 C 4.320312 -4.199219 4.558594 -4.320312 4.800781 -4.320312 C 4.921875 -4.199219 5.039062 -4.078125 5.039062 -4.078125 C 5.039062 -3.960938 4.921875 -3.839844 4.679688 -3.71875 C 4.441406 -3.71875 4.320312 -3.71875 4.320312 -3.960938 Z M 3 -2.398438 C 3.121094 -3 4.078125 -3.480469 4.441406 -3.238281 C 4.441406 -3.121094 4.199219 -2.761719 3.71875 -2.398438 C 3.121094 -1.800781 3 -1.921875 3 -2.398438 Z M 3.960938 15.238281 C 3 15.359375 2.160156 15.71875 2.160156 15.839844 C 2.160156 16.078125 1.800781 16.078125 1.558594 16.078125 C 0.359375 15.960938 1.320312 14.878906 3.359375 14.28125 C 4.679688 13.679688 6.359375 12.71875 8.160156 11.160156 C 9.601562 9.960938 10.921875 9.121094 11.28125 9.238281 C 12.601562 9.960938 6.71875 14.761719 3.960938 15.238281 Z M 12 8.160156 C 11.878906 8.398438 11.640625 8.640625 11.519531 8.640625 C 11.28125 8.519531 11.160156 8.28125 11.160156 8.039062 C 11.160156 7.800781 11.519531 7.558594 11.761719 7.558594 C 12 7.558594 12.238281 7.800781 12 8.160156 Z M 13.558594 6 C 13.199219 6.601562 12.601562 7.078125 12.480469 7.199219 C 11.761719 7.320312 12 6.238281 12.71875 6.121094 C 12.960938 6 13.320312 5.640625 13.320312 5.398438 C 13.320312 5.160156 13.558594 4.921875 13.800781 4.921875 C 13.921875 4.921875 13.921875 5.398438 13.558594 6 Z M 15 3.960938 C 15 4.078125 14.761719 4.320312 14.519531 4.320312 C 14.160156 4.199219 14.160156 3.960938 14.640625 3.71875 C 14.878906 3.71875 15 3.71875 15 3.960938 Z M 16.199219 2.519531 C 16.078125 2.519531 15.839844 2.519531 15.960938 2.28125 C 15.960938 2.039062 16.199219 1.800781 16.320312 1.800781 C 16.558594 1.679688 16.679688 1.679688 16.679688 1.921875 C 16.679688 2.160156 16.441406 2.398438 16.199219 2.519531 Z M 18.238281 3.960938 C 18 4.320312 17.878906 4.320312 17.878906 4.199219 C 17.878906 3.960938 18.121094 3.601562 18.359375 3.238281 C 18.601562 3 18.71875 3 18.71875 3.121094 C 18.71875 3.359375 18.480469 3.71875 18.238281 3.960938 Z M 28.921875 -23.039062 C 27.601562 -18.839844 26.640625 -17.039062 26.28125 -17.28125 C 25.921875 -17.519531 25.800781 -17.160156 25.679688 -16.199219 C 25.679688 -15.480469 25.441406 -14.878906 25.078125 -14.878906 C 24.839844 -14.761719 24.71875 -15.121094 24.71875 -15.480469 C 24.839844 -15.960938 24.71875 -15.960938 24.359375 -15.601562 C 24.238281 -15.359375 24.121094 -15 24.359375 -14.878906 C 24.601562 -14.519531 24.359375 -12.359375 23.878906 -12.238281 C 23.761719 -12.121094 23.519531 -11.640625 23.519531 -11.28125 C 23.398438 -10.558594 21.359375 -7.800781 20.761719 -7.441406 C 20.640625 -7.441406 20.519531 -6.839844 20.519531 -6.480469 C 20.640625 -5.878906 20.519531 -5.519531 20.28125 -5.519531 C 20.039062 -5.640625 18.238281 -3.121094 18.121094 -2.398438 C 18 -1.800781 16.441406 0.480469 16.199219 0.480469 C 15.960938 0.480469 15.601562 0.121094 15.359375 -0.121094 C 15.121094 -0.601562 14.878906 -0.71875 14.640625 -0.480469 C 14.519531 -0.238281 14.640625 -0.121094 14.761719 -0.121094 C 15.359375 0 14.398438 2.519531 13.558594 3.238281 C 12.960938 3.71875 12.71875 3.71875 12.601562 3.359375 C 12.359375 2.640625 10.921875 4.441406 10.800781 5.640625 C 10.558594 6.960938 7.921875 9.71875 5.878906 10.679688 C 4.800781 11.160156 3.839844 11.761719 3.601562 12 C 3.238281 12.121094 2.28125 12.359375 1.320312 12.601562 C -0.839844 13.078125 -1.078125 12.960938 -1.078125 12.121094 C -1.199219 11.398438 -0.121094 8.519531 0.238281 8.039062 C 0.480469 7.921875 1.078125 6.480469 1.679688 5.160156 C 2.398438 3.71875 3.121094 2.28125 3.359375 2.039062 C 3.960938 1.441406 8.039062 -4.679688 8.160156 -5.160156 C 8.160156 -5.398438 8.519531 -5.761719 8.761719 -5.878906 C 9.238281 -6.121094 10.078125 -7.199219 10.679688 -8.28125 C 11.519531 -9.359375 12.121094 -10.199219 12.359375 -10.320312 C 12.480469 -10.320312 13.441406 -11.28125 14.28125 -12.480469 C 15.121094 -13.441406 16.558594 -15 17.519531 -15.601562 C 18.359375 -16.199219 19.078125 -16.921875 19.199219 -17.28125 C 19.199219 -17.519531 19.441406 -17.640625 19.558594 -17.640625 C 19.800781 -17.640625 20.398438 -18.238281 21 -18.839844 C 22.800781 -21 27.121094 -24.359375 28.320312 -24.480469 L 29.519531 -24.601562 Z M 19.441406 -44.519531 C 18.960938 -44.039062 18.839844 -44.039062 18.839844 -44.519531 C 18.839844 -44.878906 19.078125 -45.238281 19.441406 -45.238281 C 19.679688 -45.480469 19.921875 -45.480469 19.921875 -45.359375 C 19.921875 -45.238281 19.679688 -44.878906 19.441406 -44.519531 Z M 41.519531 -73.078125 C 40.558594 -71.640625 39.839844 -70.320312 39.839844 -70.078125 C 39.839844 -69.960938 39.480469 -69.359375 39 -68.761719 C 38.398438 -68.160156 38.039062 -67.441406 37.800781 -66.839844 C 37.679688 -66.359375 37.320312 -65.640625 37.078125 -65.398438 C 36.839844 -65.160156 36.238281 -64.199219 35.878906 -63.359375 C 35.398438 -62.640625 34.679688 -61.441406 33.960938 -60.71875 C 33.480469 -60 32.878906 -59.28125 32.878906 -59.160156 C 32.878906 -59.039062 32.519531 -58.320312 31.800781 -57.601562 C 31.199219 -56.878906 30.71875 -56.160156 30.71875 -55.921875 C 30.71875 -55.800781 30 -54.601562 28.921875 -53.519531 C 27.960938 -52.320312 27.121094 -51.238281 27.121094 -51 C 27.121094 -50.878906 26.761719 -50.519531 26.28125 -50.28125 C 25.679688 -49.921875 25.078125 -49.199219 24.71875 -48.71875 C 24.121094 -47.519531 21.839844 -45.238281 21.359375 -45.238281 C 21.238281 -45.238281 21.601562 -45.960938 22.320312 -46.921875 C 23.761719 -48.71875 31.800781 -60.601562 32.519531 -62.039062 C 32.878906 -62.640625 33.480469 -63.601562 33.960938 -64.199219 C 34.921875 -65.519531 34.921875 -66.121094 33.960938 -65.878906 C 33.601562 -65.761719 33.238281 -65.398438 33.238281 -64.921875 C 33.238281 -64.441406 32.761719 -63.480469 32.160156 -62.640625 C 31.679688 -61.921875 30.960938 -60.839844 30.71875 -60.121094 C 30.359375 -59.519531 29.640625 -58.441406 28.921875 -57.601562 C 28.199219 -56.878906 27.480469 -56.160156 27.480469 -56.039062 C 27.480469 -55.199219 23.160156 -49.199219 22.558594 -49.199219 C 22.320312 -49.199219 22.078125 -49.078125 22.320312 -48.839844 C 22.320312 -48.71875 21.839844 -47.878906 21.121094 -47.160156 C 19.320312 -45.238281 19.078125 -46.199219 20.761719 -48.480469 C 21.480469 -49.558594 21.960938 -50.519531 21.960938 -50.640625 C 21.71875 -50.640625 21.601562 -50.519531 21.359375 -50.28125 C 20.878906 -49.199219 18 -45.71875 17.640625 -45.71875 C 17.640625 -45.71875 17.160156 -45.480469 16.679688 -45 C 15.839844 -44.160156 15.71875 -44.761719 16.558594 -45.839844 C 16.921875 -46.320312 18 -47.761719 18.839844 -48.960938 C 19.800781 -50.28125 20.878906 -51.839844 21.480469 -52.441406 C 22.441406 -53.640625 22.679688 -54.238281 22.199219 -54.238281 C 21.960938 -54.238281 21.601562 -53.519531 21 -52.800781 C 20.519531 -52.078125 20.039062 -51.359375 19.921875 -51.359375 C 19.800781 -51.238281 18.960938 -49.921875 18 -48.601562 C 15.480469 -44.878906 10.921875 -39.71875 9 -38.640625 C 8.519531 -38.28125 7.921875 -37.921875 7.800781 -37.921875 C 7.441406 -37.921875 7.800781 -44.28125 8.160156 -45.238281 C 8.519531 -45.71875 8.878906 -47.039062 9.121094 -48.238281 C 9.359375 -49.441406 9.839844 -50.640625 10.078125 -51 C 10.320312 -51.359375 10.679688 -52.441406 10.800781 -53.398438 C 10.921875 -54.238281 11.398438 -56.160156 12 -57.359375 C 12.601562 -58.679688 13.078125 -59.761719 13.078125 -60 C 13.078125 -60.480469 17.519531 -69.960938 18.601562 -71.761719 C 20.761719 -75.359375 21.238281 -76.078125 23.398438 -78.121094 C 23.878906 -78.480469 24.480469 -79.679688 24.839844 -80.519531 C 25.199219 -81.601562 25.921875 -82.800781 27.121094 -84 C 28.199219 -84.960938 28.921875 -85.921875 28.921875 -86.160156 C 28.921875 -86.640625 31.441406 -88.800781 33.238281 -89.878906 C 34.199219 -90.359375 35.160156 -91.078125 35.519531 -91.441406 C 35.878906 -91.679688 36.480469 -91.921875 36.601562 -91.921875 C 36.839844 -92.039062 37.558594 -92.160156 38.039062 -92.28125 C 38.878906 -92.519531 39.121094 -92.519531 39.121094 -91.921875 C 39.121094 -91.679688 39.359375 -91.320312 39.601562 -91.199219 C 39.960938 -91.078125 40.078125 -90.839844 39.71875 -90.359375 C 39.238281 -89.640625 39.960938 -86.640625 41.28125 -83.761719 C 42 -82.320312 42.238281 -82.078125 42.601562 -82.441406 C 42.960938 -82.800781 43.078125 -82.800781 43.441406 -82.320312 C 43.558594 -81.960938 43.558594 -81.839844 43.441406 -81.71875 C 43.199219 -81.601562 43.078125 -81.238281 43.078125 -80.878906 C 43.078125 -80.519531 42.71875 -79.679688 42.359375 -79.199219 C 41.640625 -78 40.921875 -76.441406 41.519531 -76.679688 C 41.640625 -76.800781 42.480469 -78 43.199219 -79.078125 C 43.558594 -79.679688 44.039062 -80.160156 44.398438 -80.640625 C 44.28125 -80.160156 44.28125 -79.800781 44.28125 -79.441406 C 44.519531 -79.558594 44.640625 -79.679688 44.640625 -79.800781 C 44.878906 -79.800781 44.878906 -79.320312 44.761719 -78.480469 C 43.921875 -76.921875 42.71875 -74.878906 41.519531 -73.078125 Z M 26.640625 -19.800781 C 26.761719 -19.320312 26.878906 -19.320312 27.238281 -19.558594 C 27.480469 -19.800781 27.480469 -20.039062 27.359375 -20.398438 C 26.878906 -21 26.398438 -20.640625 26.640625 -19.800781 Z M 3 -8.761719 C 3 -9.121094 2.878906 -9.480469 2.640625 -9.480469 C 2.519531 -9.480469 2.160156 -9.238281 2.160156 -8.878906 C 2.039062 -8.519531 2.160156 -8.28125 2.519531 -8.160156 C 2.878906 -8.160156 3.121094 -8.398438 3 -8.761719 Z M 4.320312 -10.679688 C 4.558594 -11.039062 4.921875 -11.519531 5.039062 -11.878906 C 5.039062 -12.480469 3.839844 -11.039062 3.71875 -10.441406 C 3.71875 -10.199219 3.960938 -10.320312 4.320312 -10.679688 Z M 4.320312 -10.679688 "/></g></g></g></svg>